# Blender 5.2.0 LTS
# www.blender.org
mtllib GlassBottle.mtl
o Circle
v 0.000000 0.036277 -0.106815
v -0.040875 0.036277 -0.098685
v -0.075533 0.036277 -0.075533
v -0.098685 0.036277 -0.040875
v -0.106815 0.036277 -0.000000
v -0.098685 0.036278 0.040875
v -0.075533 0.036278 0.075533
v -0.040875 0.036278 0.098685
v 0.000000 0.036278 0.106815
v 0.040875 0.036278 0.098685
v 0.075533 0.036278 0.075533
v 0.098685 0.036278 0.040875
v 0.106815 0.036277 -0.000000
v 0.098685 0.036277 -0.040875
v 0.075533 0.036277 -0.075533
v 0.040875 0.036277 -0.098685
v 0.000000 1.451310 -0.043755
v -0.016748 1.451310 -0.040425
v -0.030945 1.451310 -0.030945
v -0.040425 1.451310 -0.016748
v -0.043755 1.451310 -0.000000
v -0.040425 1.451310 0.016747
v -0.030945 1.451310 0.030945
v -0.016748 1.451310 0.040425
v 0.000000 1.451310 0.043755
v 0.016748 1.451310 0.040425
v 0.030945 1.451310 0.030945
v 0.040425 1.451310 0.016747
v 0.043755 1.451310 -0.000000
v 0.040425 1.451310 -0.016748
v 0.030945 1.451310 -0.030945
v 0.016748 1.451310 -0.040425
v 0.000000 1.498283 -0.043665
v -0.016710 1.498283 -0.040343
v -0.030877 1.498283 -0.030878
v -0.040343 1.498283 -0.016710
v -0.043665 1.498283 -0.000000
v -0.040343 1.498283 0.016710
v -0.030877 1.498283 0.030877
v -0.016710 1.498283 0.040342
v 0.000000 1.498283 0.043665
v 0.016710 1.498283 0.040342
v 0.030877 1.498283 0.030877
v 0.040343 1.498283 0.016710
v 0.043665 1.498283 -0.000000
v 0.040343 1.498283 -0.016710
v 0.030877 1.498283 -0.030878
v 0.016710 1.498283 -0.040343
v -0.063825 0.015780 -0.154087
v -0.065265 0.020280 -0.157560
v 0.000000 0.020280 -0.170543
v 0.000000 0.015780 -0.166777
v -0.117930 0.015780 -0.117930
v -0.120592 0.020280 -0.120592
v -0.154087 0.015780 -0.063825
v -0.157560 0.020280 -0.065265
v -0.166777 0.015780 -0.000000
v -0.170543 0.020280 -0.000000
v -0.154087 0.015780 0.063825
v -0.157560 0.020280 0.065265
v -0.117930 0.015780 0.117930
v -0.120592 0.020280 0.120592
v -0.063825 0.015780 0.154087
v -0.065265 0.020280 0.157560
v 0.000000 0.015780 0.166777
v 0.000000 0.020280 0.170543
v 0.063825 0.015780 0.154087
v 0.065265 0.020280 0.157560
v 0.117930 0.015780 0.117930
v 0.120592 0.020280 0.120592
v 0.154087 0.015780 0.063825
v 0.157560 0.020280 0.065265
v 0.166777 0.015780 -0.000000
v 0.170543 0.020280 -0.000000
v 0.154087 0.015780 -0.063825
v 0.157560 0.020280 -0.065265
v 0.117930 0.015780 -0.117930
v 0.120592 0.020280 -0.120592
v 0.063825 0.015780 -0.154087
v 0.065265 0.020280 -0.157560
v -0.064695 0.022282 -0.156195
v -0.059977 0.023827 -0.144803
v 0.000000 0.023827 -0.156727
v 0.000000 0.022282 -0.169065
v -0.119542 0.022282 -0.119542
v -0.110827 0.023827 -0.110827
v -0.156195 0.022282 -0.064695
v -0.144803 0.023827 -0.059977
v -0.169065 0.022282 -0.000000
v -0.156727 0.023828 -0.000000
v -0.156195 0.022283 0.064695
v -0.144803 0.023828 0.059977
v -0.119542 0.022283 0.119542
v -0.110827 0.023828 0.110827
v -0.064695 0.022283 0.156195
v -0.059977 0.023828 0.144803
v 0.000000 0.022283 0.169065
v 0.000000 0.023828 0.156727
v 0.064695 0.022283 0.156195
v 0.059977 0.023828 0.144803
v 0.119542 0.022283 0.119542
v 0.110827 0.023828 0.110827
v 0.156195 0.022283 0.064695
v 0.144803 0.023828 0.059977
v 0.169065 0.022282 -0.000000
v 0.156727 0.023828 -0.000000
v 0.156195 0.022282 -0.064695
v 0.144803 0.023827 -0.059977
v 0.119542 0.022282 -0.119542
v 0.110827 0.023827 -0.110827
v 0.064695 0.022282 -0.156195
v 0.059977 0.023827 -0.144803
v 0.000000 0.830760 -0.165195
v 0.000000 0.948660 -0.149378
v 0.000000 0.868620 -0.163073
v 0.000000 0.911895 -0.157253
v -0.057165 0.948660 -0.138008
v -0.063217 0.830760 -0.152625
v -0.060180 0.911895 -0.145283
v -0.062408 0.868620 -0.150660
v -0.105623 0.948660 -0.105623
v -0.116812 0.830760 -0.116813
v -0.111195 0.911895 -0.111195
v -0.115313 0.868620 -0.115313
v -0.138008 0.948660 -0.057165
v -0.152625 0.830760 -0.063218
v -0.145282 0.911895 -0.060180
v -0.150660 0.868620 -0.062408
v -0.149377 0.948660 -0.000000
v -0.165195 0.830760 -0.000000
v -0.157252 0.911895 -0.000000
v -0.163072 0.868620 -0.000000
v -0.138008 0.948660 0.057165
v -0.152625 0.830760 0.063217
v -0.145282 0.911895 0.060180
v -0.150660 0.868620 0.062407
v -0.105623 0.948660 0.105622
v -0.116812 0.830760 0.116812
v -0.111195 0.911895 0.111195
v -0.115313 0.868620 0.115312
v -0.057165 0.948660 0.138007
v -0.063217 0.830760 0.152625
v -0.060180 0.911895 0.145282
v -0.062408 0.868620 0.150660
v 0.000000 0.948660 0.149377
v 0.000000 0.830760 0.165195
v 0.000000 0.911895 0.157252
v 0.000000 0.868620 0.163072
v 0.057165 0.948660 0.138007
v 0.063217 0.830760 0.152625
v 0.060180 0.911895 0.145282
v 0.062408 0.868620 0.150660
v 0.105623 0.948660 0.105622
v 0.116812 0.830760 0.116812
v 0.111195 0.911895 0.111195
v 0.115313 0.868620 0.115312
v 0.138008 0.948660 0.057165
v 0.152625 0.830760 0.063217
v 0.145282 0.911895 0.060180
v 0.150660 0.868620 0.062407
v 0.149377 0.948660 -0.000000
v 0.165195 0.830760 -0.000000
v 0.157252 0.911895 -0.000000
v 0.163072 0.868620 -0.000000
v 0.138008 0.948660 -0.057165
v 0.152625 0.830760 -0.063218
v 0.145282 0.911895 -0.060180
v 0.150660 0.868620 -0.062408
v 0.105623 0.948660 -0.105623
v 0.116812 0.830760 -0.116813
v 0.111195 0.911895 -0.111195
v 0.115313 0.868620 -0.115313
v 0.057165 0.948660 -0.138008
v 0.063217 0.830760 -0.152625
v 0.060180 0.911895 -0.145283
v 0.062408 0.868620 -0.150660
v 0.000000 1.305202 -0.076635
v 0.000000 1.311915 -0.078975
v -0.030225 1.311915 -0.072968
v -0.029325 1.305202 -0.070800
v -0.055845 1.311915 -0.055845
v -0.054187 1.305202 -0.054188
v -0.072967 1.311915 -0.030225
v -0.070800 1.305202 -0.029325
v -0.078975 1.311915 -0.000000
v -0.076635 1.305202 -0.000000
v -0.072967 1.311915 0.030225
v -0.070800 1.305202 0.029325
v -0.055845 1.311915 0.055845
v -0.054187 1.305202 0.054187
v -0.030225 1.311915 0.072967
v -0.029325 1.305202 0.070800
v 0.000000 1.311915 0.078975
v 0.000000 1.305202 0.076635
v 0.030225 1.311915 0.072967
v 0.029325 1.305202 0.070800
v 0.055845 1.311915 0.055845
v 0.054187 1.305202 0.054187
v 0.072967 1.311915 0.030225
v 0.070800 1.305202 0.029325
v 0.078975 1.311915 -0.000000
v 0.076635 1.305202 -0.000000
v 0.072967 1.311915 -0.030225
v 0.070800 1.305202 -0.029325
v 0.055845 1.311915 -0.055845
v 0.054187 1.305202 -0.054188
v 0.030225 1.311915 -0.072968
v 0.029325 1.305202 -0.070800
v 0.000000 1.265378 -0.052770
v 0.000000 1.290952 -0.060240
v -0.023055 1.290952 -0.055658
v -0.020190 1.265378 -0.048750
v -0.042600 1.290952 -0.042600
v -0.037313 1.265378 -0.037313
v -0.055657 1.290952 -0.023055
v -0.048750 1.265378 -0.020190
v -0.060240 1.290952 -0.000000
v -0.052770 1.265378 -0.000000
v -0.055657 1.290952 0.023055
v -0.048750 1.265378 0.020190
v -0.042600 1.290952 0.042600
v -0.037313 1.265378 0.037312
v -0.023055 1.290952 0.055657
v -0.020190 1.265378 0.048750
v 0.000000 1.290952 0.060240
v 0.000000 1.265378 0.052770
v 0.023055 1.290952 0.055657
v 0.020190 1.265378 0.048750
v 0.042600 1.290952 0.042600
v 0.037313 1.265378 0.037312
v 0.055657 1.290952 0.023055
v 0.048750 1.265378 0.020190
v 0.060240 1.290952 -0.000000
v 0.052770 1.265378 -0.000000
v 0.055657 1.290952 -0.023055
v 0.048750 1.265378 -0.020190
v 0.042600 1.290952 -0.042600
v 0.037313 1.265378 -0.037313
v 0.023055 1.290952 -0.055658
v 0.020190 1.265378 -0.048750
v 0.000000 0.014175 -0.103740
v -0.039698 0.014175 -0.095843
v -0.073358 0.014175 -0.073358
v -0.095843 0.014175 -0.039698
v -0.103740 0.014175 -0.000000
v -0.095843 0.014175 0.039698
v -0.073358 0.014175 0.073358
v -0.039698 0.014175 0.095843
v 0.000000 0.014175 0.103740
v 0.039698 0.014175 0.095843
v 0.073358 0.014175 0.073358
v 0.095843 0.014175 0.039698
v 0.103740 0.014175 -0.000000
v 0.095843 0.014175 -0.039698
v 0.073358 0.014175 -0.073358
v 0.039698 0.014175 -0.095843
v 0.000000 1.471170 -0.065903
v -0.025223 1.471170 -0.060885
v -0.046597 1.471170 -0.046598
v -0.060885 1.471170 -0.025223
v -0.065902 1.471170 -0.000000
v -0.060885 1.471170 0.025222
v -0.046597 1.471170 0.046597
v -0.025223 1.471170 0.060885
v 0.000000 1.471170 0.065902
v 0.025223 1.471170 0.060885
v 0.046597 1.471170 0.046597
v 0.060885 1.471170 0.025222
v 0.065902 1.471170 -0.000000
v 0.060885 1.471170 -0.025223
v 0.046597 1.471170 -0.046598
v 0.025223 1.471170 -0.060885
v -0.071753 0.007500 -0.173227
v -0.068828 -0.000000 -0.166163
v 0.000000 -0.000000 -0.179850
v 0.000000 0.007500 -0.187500
v -0.132585 0.007500 -0.132585
v -0.127170 -0.000000 -0.127170
v -0.173227 0.007500 -0.071753
v -0.166163 -0.000000 -0.068828
v -0.187500 0.007500 -0.000000
v -0.179850 0.000000 0.000000
v -0.173227 0.007500 0.071753
v -0.166163 0.000000 0.068828
v -0.132585 0.007500 0.132585
v -0.127170 0.000000 0.127170
v -0.071753 0.007500 0.173227
v -0.068828 0.000000 0.166163
v 0.000000 0.007500 0.187500
v 0.000000 0.000000 0.179850
v 0.071753 0.007500 0.173227
v 0.068828 0.000000 0.166163
v 0.132585 0.007500 0.132585
v 0.127170 0.000000 0.127170
v 0.173227 0.007500 0.071753
v 0.166163 0.000000 0.068828
v 0.187500 0.007500 -0.000000
v 0.179850 0.000000 0.000000
v 0.173227 0.007500 -0.071753
v 0.166163 -0.000000 -0.068828
v 0.132585 0.007500 -0.132585
v 0.127170 -0.000000 -0.127170
v 0.071753 0.007500 -0.173227
v 0.068828 -0.000000 -0.166163
v -0.064238 -0.000000 -0.155085
v -0.058477 0.001860 -0.141172
v 0.000000 0.001860 -0.152805
v 0.000000 -0.000000 -0.167865
v -0.118695 -0.000000 -0.118695
v -0.108045 0.001860 -0.108045
v -0.155085 -0.000000 -0.064238
v -0.141172 0.001860 -0.058477
v -0.167865 0.000000 0.000000
v -0.152805 0.001860 -0.000000
v -0.155085 0.000000 0.064238
v -0.141172 0.001860 0.058477
v -0.118695 0.000000 0.118695
v -0.108045 0.001860 0.108045
v -0.064238 0.000000 0.155085
v -0.058477 0.001860 0.141172
v 0.000000 0.000000 0.167865
v 0.000000 0.001860 0.152805
v 0.064238 0.000000 0.155085
v 0.058477 0.001860 0.141172
v 0.118695 0.000000 0.118695
v 0.108045 0.001860 0.108045
v 0.155085 0.000000 0.064238
v 0.141172 0.001860 0.058477
v 0.167865 0.000000 0.000000
v 0.152805 0.001860 -0.000000
v 0.155085 -0.000000 -0.064238
v 0.141172 0.001860 -0.058477
v 0.118695 -0.000000 -0.118695
v 0.108045 0.001860 -0.108045
v 0.064238 -0.000000 -0.155085
v 0.058477 0.001860 -0.141172
v 0.000000 0.831390 -0.187500
v 0.000000 0.954262 -0.170978
v 0.000000 0.870728 -0.185288
v 0.000000 0.915698 -0.179235
v -0.065430 0.954262 -0.157965
v -0.071753 0.831390 -0.173228
v -0.068595 0.915698 -0.165593
v -0.070905 0.870728 -0.171180
v -0.120900 0.954262 -0.120900
v -0.132585 0.831390 -0.132585
v -0.126743 0.915698 -0.126743
v -0.131018 0.870728 -0.131018
v -0.157965 0.954262 -0.065430
v -0.173227 0.831390 -0.071753
v -0.165593 0.915698 -0.068595
v -0.171180 0.870728 -0.070905
v -0.170978 0.954262 -0.000000
v -0.187500 0.831390 -0.000000
v -0.179235 0.915698 -0.000000
v -0.185288 0.870728 -0.000000
v -0.157965 0.954262 0.065430
v -0.173227 0.831390 0.071752
v -0.165593 0.915698 0.068595
v -0.171180 0.870728 0.070905
v -0.120900 0.954262 0.120900
v -0.132585 0.831390 0.132585
v -0.126743 0.915698 0.126742
v -0.131018 0.870728 0.131017
v -0.065430 0.954262 0.157965
v -0.071753 0.831390 0.173227
v -0.068595 0.915698 0.165592
v -0.070905 0.870728 0.171180
v 0.000000 0.954262 0.170977
v 0.000000 0.831390 0.187500
v 0.000000 0.915698 0.179235
v 0.000000 0.870728 0.185287
v 0.065430 0.954262 0.157965
v 0.071753 0.831390 0.173227
v 0.068595 0.915698 0.165592
v 0.070905 0.870728 0.171180
v 0.120900 0.954262 0.120900
v 0.132585 0.831390 0.132585
v 0.126743 0.915698 0.126742
v 0.131018 0.870728 0.131017
v 0.157965 0.954262 0.065430
v 0.173227 0.831390 0.071752
v 0.165593 0.915698 0.068595
v 0.171180 0.870728 0.070905
v 0.170978 0.954262 -0.000000
v 0.187500 0.831390 -0.000000
v 0.179235 0.915698 -0.000000
v 0.185288 0.870728 -0.000000
v 0.157965 0.954262 -0.065430
v 0.173227 0.831390 -0.071753
v 0.165593 0.915698 -0.068595
v 0.171180 0.870728 -0.070905
v 0.120900 0.954262 -0.120900
v 0.132585 0.831390 -0.132585
v 0.126743 0.915698 -0.126743
v 0.131018 0.870728 -0.131018
v 0.065430 0.954262 -0.157965
v 0.071753 0.831390 -0.173228
v 0.068595 0.915698 -0.165593
v 0.070905 0.870728 -0.171180
v 0.000000 1.293278 -0.095498
v 0.000000 1.311165 -0.101273
v -0.038760 1.311165 -0.093570
v -0.036548 1.293278 -0.088230
v -0.071610 1.311165 -0.071610
v -0.067523 1.293278 -0.067523
v -0.093570 1.311165 -0.038760
v -0.088230 1.293278 -0.036548
v -0.101273 1.311165 -0.000000
v -0.095498 1.293278 -0.000000
v -0.093570 1.311165 0.038760
v -0.088230 1.293278 0.036547
v -0.071610 1.311165 0.071610
v -0.067523 1.293278 0.067522
v -0.038760 1.311165 0.093570
v -0.036548 1.293278 0.088230
v 0.000000 1.311165 0.101272
v 0.000000 1.293278 0.095497
v 0.038760 1.311165 0.093570
v 0.036548 1.293278 0.088230
v 0.071610 1.311165 0.071610
v 0.067523 1.293278 0.067522
v 0.093570 1.311165 0.038760
v 0.088230 1.293278 0.036547
v 0.101273 1.311165 -0.000000
v 0.095498 1.293278 -0.000000
v 0.093570 1.311165 -0.038760
v 0.088230 1.293278 -0.036548
v 0.071610 1.311165 -0.071610
v 0.067523 1.293278 -0.067523
v 0.038760 1.311165 -0.093570
v 0.036548 1.293278 -0.088230
v 0.000000 1.265587 -0.075083
v 0.000000 1.278638 -0.078848
v -0.030173 1.278638 -0.072848
v -0.028733 1.265587 -0.069368
v -0.055755 1.278638 -0.055755
v -0.053093 1.265587 -0.053093
v -0.072848 1.278638 -0.030173
v -0.069367 1.265587 -0.028733
v -0.078847 1.278638 -0.000000
v -0.075082 1.265587 -0.000000
v -0.072848 1.278638 0.030172
v -0.069367 1.265587 0.028732
v -0.055755 1.278638 0.055755
v -0.053093 1.265587 0.053092
v -0.030173 1.278638 0.072847
v -0.028733 1.265587 0.069367
v 0.000000 1.278638 0.078847
v 0.000000 1.265587 0.075082
v 0.030173 1.278638 0.072847
v 0.028733 1.265587 0.069367
v 0.055755 1.278638 0.055755
v 0.053093 1.265587 0.053092
v 0.072848 1.278638 0.030172
v 0.069367 1.265587 0.028732
v 0.078847 1.278638 -0.000000
v 0.075082 1.265587 -0.000000
v 0.072848 1.278638 -0.030173
v 0.069367 1.265587 -0.028733
v 0.055755 1.278638 -0.055755
v 0.053093 1.265587 -0.053093
v 0.030173 1.278638 -0.072848
v 0.028733 1.265587 -0.069368
v -0.028823 1.471170 -0.069593
v -0.030322 1.474995 -0.073200
v 0.000000 1.474995 -0.079238
v 0.000000 1.471170 -0.075323
v -0.053265 1.471170 -0.053265
v -0.056025 1.474995 -0.056025
v -0.069592 1.471170 -0.028823
v -0.073200 1.474995 -0.030323
v -0.075323 1.471170 -0.000000
v -0.079237 1.474995 -0.000000
v -0.069592 1.471170 0.028822
v -0.073200 1.474995 0.030322
v -0.053265 1.471170 0.053265
v -0.056025 1.474995 0.056025
v -0.028823 1.471170 0.069592
v -0.030322 1.474995 0.073200
v 0.000000 1.471170 0.075322
v 0.000000 1.474995 0.079237
v 0.028823 1.471170 0.069592
v 0.030322 1.474995 0.073200
v 0.053265 1.471170 0.053265
v 0.056025 1.474995 0.056025
v 0.069592 1.471170 0.028822
v 0.073200 1.474995 0.030322
v 0.075323 1.471170 -0.000000
v 0.079237 1.474995 -0.000000
v 0.069592 1.471170 -0.028823
v 0.073200 1.474995 -0.030323
v 0.053265 1.471170 -0.053265
v 0.056025 1.474995 -0.056025
v 0.028823 1.471170 -0.069593
v 0.030322 1.474995 -0.073200
v -0.030345 1.494420 -0.073260
v -0.028860 1.498245 -0.069675
v 0.000000 1.498245 -0.075413
v 0.000000 1.494420 -0.079298
v -0.056070 1.494420 -0.056070
v -0.053325 1.498245 -0.053325
v -0.073260 1.494420 -0.030345
v -0.069675 1.498245 -0.028860
v -0.079297 1.494420 -0.000000
v -0.075412 1.498245 -0.000000
v -0.073260 1.494420 0.030345
v -0.069675 1.498245 0.028860
v -0.056070 1.494420 0.056070
v -0.053325 1.498245 0.053325
v -0.030345 1.494420 0.073260
v -0.028860 1.498245 0.069675
v 0.000000 1.494420 0.079297
v 0.000000 1.498245 0.075412
v 0.030345 1.494420 0.073260
v 0.028860 1.498245 0.069675
v 0.056070 1.494420 0.056070
v 0.053325 1.498245 0.053325
v 0.073260 1.494420 0.030345
v 0.069675 1.498245 0.028860
v 0.079297 1.494420 -0.000000
v 0.075412 1.498245 -0.000000
v 0.073260 1.494420 -0.030345
v 0.069675 1.498245 -0.028860
v 0.056070 1.494420 -0.056070
v 0.053325 1.498245 -0.053325
v 0.030345 1.494420 -0.073260
v 0.028860 1.498245 -0.069675
vn -0.3710 -0.2449 -0.8958
vn -0.0000 -0.2449 -0.9696
vn -0.0000 -0.0019 -1.0000
vn -0.3826 -0.0020 -0.9239
vn 0.6856 -0.2448 0.6856
vn 0.3710 -0.2449 0.8958
vn 0.3826 -0.0020 0.9239
vn 0.7071 -0.0020 0.7071
vn -0.6856 -0.2448 -0.6856
vn -0.7071 -0.0020 -0.7071
vn 0.8957 -0.2449 0.3710
vn 0.9239 -0.0020 0.3826
vn -0.8957 -0.2449 -0.3710
vn -0.9239 -0.0020 -0.3826
vn 0.9696 -0.2449 -0.0000
vn 1.0000 -0.0019 -0.0000
vn -0.9696 -0.2449 -0.0000
vn -1.0000 -0.0019 -0.0000
vn 0.8958 -0.2449 -0.3710
vn 0.9239 -0.0020 -0.3826
vn -0.8958 -0.2449 0.3710
vn -0.9239 -0.0020 0.3826
vn 0.6856 -0.2448 -0.6856
vn 0.7071 -0.0020 -0.7071
vn -0.6856 -0.2448 0.6856
vn -0.7071 -0.0020 0.7071
vn 0.3710 -0.2449 -0.8958
vn 0.3826 -0.0020 -0.9239
vn -0.3710 -0.2449 0.8958
vn -0.3826 -0.0020 0.9239
vn -0.0000 -0.2449 0.9696
vn -0.0000 -0.0019 1.0000
vn -0.0000 1.0000 -0.0000
vn -0.0001 1.0000 -0.0000
vn -0.0000 1.0000 0.0001
vn 0.0001 1.0000 -0.0000
vn -0.0000 1.0000 -0.0001
vn -0.3613 -0.3295 -0.8723
vn -0.0000 -0.3296 -0.9441
vn -0.0000 -0.6414 -0.7672
vn -0.2936 -0.6414 -0.7088
vn -0.6676 -0.3296 -0.6676
vn -0.5425 -0.6414 -0.5425
vn -0.8722 -0.3296 -0.3613
vn -0.7088 -0.6414 -0.2936
vn -0.9441 -0.3296 -0.0000
vn -0.7672 -0.6414 -0.0000
vn -0.8723 -0.3295 0.3613
vn -0.7088 -0.6414 0.2936
vn -0.6676 -0.3296 0.6676
vn -0.5425 -0.6414 0.5425
vn -0.3613 -0.3295 0.8723
vn -0.2936 -0.6414 0.7088
vn -0.0000 -0.3296 0.9441
vn -0.0000 -0.6414 0.7672
vn 0.3613 -0.3295 0.8723
vn 0.2936 -0.6414 0.7088
vn 0.6676 -0.3296 0.6676
vn 0.5425 -0.6414 0.5425
vn 0.8722 -0.3296 0.3613
vn 0.7088 -0.6414 0.2936
vn 0.9441 -0.3296 -0.0000
vn 0.7672 -0.6414 -0.0000
vn 0.8723 -0.3295 -0.3613
vn 0.7088 -0.6414 -0.2936
vn 0.6676 -0.3296 -0.6676
vn 0.5425 -0.6414 -0.5425
vn 0.3613 -0.3295 -0.8723
vn 0.2936 -0.6414 -0.7088
vn -0.0926 0.9703 -0.2236
vn -0.0000 0.9703 -0.2420
vn -0.0000 0.9922 -0.1243
vn -0.0475 0.9922 -0.1149
vn -0.1711 0.9703 -0.1711
vn -0.0879 0.9922 -0.0879
vn -0.2236 0.9703 -0.0926
vn -0.1149 0.9922 -0.0475
vn -0.2420 0.9703 -0.0000
vn -0.1243 0.9922 -0.0000
vn -0.2236 0.9703 0.0926
vn -0.1149 0.9922 0.0475
vn -0.1711 0.9703 0.1711
vn -0.0879 0.9922 0.0879
vn -0.0926 0.9703 0.2236
vn -0.0475 0.9922 0.1149
vn -0.0000 0.9703 0.2420
vn -0.0000 0.9922 0.1243
vn 0.0926 0.9703 0.2236
vn 0.0475 0.9922 0.1149
vn 0.1711 0.9703 0.1711
vn 0.0879 0.9922 0.0879
vn 0.2236 0.9703 0.0926
vn 0.1149 0.9922 0.0475
vn 0.2420 0.9703 -0.0000
vn 0.1243 0.9922 -0.0000
vn 0.2236 0.9703 -0.0926
vn 0.1149 0.9922 -0.0475
vn 0.1711 0.9703 -0.1711
vn 0.0879 0.9922 -0.0879
vn 0.0926 0.9703 -0.2236
vn 0.0475 0.9922 -0.1149
vn 0.3827 -0.0019 0.9239
vn -0.0000 -0.0970 0.9953
vn 0.3809 -0.0970 0.9195
vn -0.0000 -0.1333 0.9911
vn 0.3793 -0.1333 0.9156
vn -0.0000 -0.2917 0.9565
vn 0.3661 -0.2918 0.8837
vn 0.7071 -0.0019 0.7071
vn 0.7038 -0.0970 0.7038
vn 0.7008 -0.1333 0.7008
vn 0.6763 -0.2917 0.6763
vn 0.9239 -0.0019 0.3827
vn 0.9195 -0.0970 0.3809
vn 0.9156 -0.1333 0.3793
vn 0.8837 -0.2917 0.3661
vn 0.9953 -0.0969 -0.0000
vn 0.9911 -0.1333 -0.0000
vn 0.9565 -0.2917 -0.0000
vn 0.9239 -0.0019 -0.3827
vn 0.9195 -0.0970 -0.3809
vn 0.9156 -0.1333 -0.3793
vn 0.8837 -0.2917 -0.3661
vn 0.7071 -0.0019 -0.7071
vn 0.7038 -0.0970 -0.7038
vn 0.7008 -0.1333 -0.7008
vn 0.6763 -0.2917 -0.6763
vn 0.3827 -0.0019 -0.9239
vn 0.3809 -0.0970 -0.9195
vn 0.3793 -0.1333 -0.9156
vn 0.3661 -0.2917 -0.8837
vn -0.0000 -0.0969 -0.9953
vn -0.0000 -0.1333 -0.9911
vn -0.0000 -0.2917 -0.9565
vn -0.3827 -0.0019 -0.9239
vn -0.3809 -0.0970 -0.9195
vn -0.3793 -0.1333 -0.9156
vn -0.3661 -0.2917 -0.8837
vn -0.7071 -0.0019 -0.7071
vn -0.7038 -0.0970 -0.7038
vn -0.7008 -0.1333 -0.7008
vn -0.6763 -0.2917 -0.6763
vn -0.9239 -0.0019 -0.3827
vn -0.9195 -0.0970 -0.3809
vn -0.9156 -0.1333 -0.3793
vn -0.8837 -0.2917 -0.3661
vn -0.9953 -0.0970 -0.0000
vn -0.9911 -0.1333 -0.0000
vn -0.9565 -0.2917 -0.0000
vn -0.9239 -0.0019 0.3827
vn -0.9195 -0.0970 0.3809
vn -0.9156 -0.1333 0.3793
vn -0.8837 -0.2917 0.3661
vn -0.7071 -0.0019 0.7071
vn -0.7038 -0.0970 0.7038
vn -0.7008 -0.1333 0.7008
vn -0.6763 -0.2917 0.6763
vn -0.3827 -0.0019 0.9239
vn -0.3809 -0.0970 0.9195
vn -0.3793 -0.1333 0.9156
vn -0.3661 -0.2917 0.8837
vn 0.2511 0.7547 0.6061
vn -0.0000 0.7547 0.6561
vn -0.0000 -0.2448 0.9696
vn 0.3711 -0.2449 0.8957
vn 0.4640 0.7547 0.4639
vn 0.6856 -0.2449 0.6856
vn 0.6062 0.7547 0.2510
vn 0.8957 -0.2449 0.3711
vn 0.6561 0.7547 -0.0000
vn 0.6061 0.7547 -0.2511
vn 0.8957 -0.2449 -0.3711
vn 0.4639 0.7547 -0.4640
vn 0.6856 -0.2449 -0.6856
vn 0.2510 0.7547 -0.6061
vn 0.3711 -0.2449 -0.8957
vn -0.0000 0.7547 -0.6561
vn -0.0000 -0.2448 -0.9696
vn -0.2511 0.7547 -0.6061
vn -0.3711 -0.2449 -0.8957
vn -0.4640 0.7547 -0.4639
vn -0.6856 -0.2449 -0.6856
vn -0.6062 0.7547 -0.2510
vn -0.8957 -0.2449 -0.3711
vn -0.6561 0.7547 -0.0000
vn -0.6061 0.7547 0.2511
vn -0.8957 -0.2449 0.3711
vn -0.4639 0.7547 0.4640
vn -0.6856 -0.2449 0.6856
vn -0.2510 0.7547 0.6061
vn -0.3711 -0.2449 0.8957
vn 0.3660 -0.2917 0.8837
vn -0.0000 0.5379 0.8430
vn 0.3226 0.5379 0.7788
vn 0.6764 -0.2917 0.6764
vn 0.5961 0.5379 0.5961
vn 0.8837 -0.2917 0.3660
vn 0.7788 0.5379 0.3226
vn 0.8430 0.5379 -0.0000
vn 0.8837 -0.2917 -0.3660
vn 0.7788 0.5379 -0.3226
vn 0.6764 -0.2917 -0.6764
vn 0.5961 0.5379 -0.5961
vn 0.3660 -0.2917 -0.8837
vn 0.3226 0.5379 -0.7788
vn -0.0000 0.5379 -0.8430
vn -0.3660 -0.2917 -0.8837
vn -0.3226 0.5379 -0.7788
vn -0.6764 -0.2917 -0.6764
vn -0.5961 0.5379 -0.5961
vn -0.8837 -0.2917 -0.3660
vn -0.7788 0.5379 -0.3226
vn -0.8430 0.5379 -0.0000
vn -0.8837 -0.2917 0.3660
vn -0.7788 0.5379 0.3226
vn -0.6764 -0.2917 0.6764
vn -0.5961 0.5379 0.5961
vn -0.3660 -0.2917 0.8837
vn -0.3226 0.5379 0.7788
vn -0.0000 -1.0000 -0.0000
vn -0.1406 -0.9301 -0.3394
vn -0.3827 -0.0001 -0.9239
vn -0.0000 -0.0001 -1.0000
vn -0.0000 -0.9301 -0.3674
vn -0.2598 -0.9300 -0.2598
vn -0.7071 -0.0002 -0.7071
vn -0.3394 -0.9301 -0.1406
vn -0.9239 -0.0001 -0.3827
vn -0.3674 -0.9301 -0.0000
vn -1.0000 -0.0001 -0.0000
vn -0.3394 -0.9301 0.1406
vn -0.9239 -0.0001 0.3827
vn -0.2598 -0.9300 0.2598
vn -0.7071 -0.0002 0.7071
vn -0.1406 -0.9301 0.3394
vn -0.3827 -0.0001 0.9239
vn -0.0000 -0.9301 0.3674
vn -0.0000 -0.0001 1.0000
vn 0.1406 -0.9301 0.3394
vn 0.3827 -0.0001 0.9239
vn 0.2598 -0.9300 0.2598
vn 0.7071 -0.0002 0.7071
vn 0.3394 -0.9301 0.1406
vn 0.9239 -0.0001 0.3827
vn 0.3674 -0.9301 -0.0000
vn 1.0000 -0.0001 -0.0000
vn 0.3394 -0.9301 -0.1406
vn 0.9239 -0.0001 -0.3827
vn 0.2598 -0.9300 -0.2598
vn 0.7071 -0.0002 -0.7071
vn 0.1406 -0.9301 -0.3394
vn 0.3827 -0.0001 -0.9239
vn 0.0932 -0.9699 0.2249
vn 0.0253 -0.9978 0.0611
vn -0.0000 -0.9978 0.0662
vn -0.0000 -0.9699 0.2434
vn 0.1721 -0.9699 0.1721
vn 0.0468 -0.9978 0.0468
vn 0.2249 -0.9699 0.0931
vn 0.0611 -0.9978 0.0253
vn 0.2434 -0.9699 -0.0000
vn 0.0662 -0.9978 -0.0000
vn 0.2249 -0.9699 -0.0931
vn 0.0611 -0.9978 -0.0253
vn 0.1721 -0.9699 -0.1721
vn 0.0468 -0.9978 -0.0468
vn 0.0931 -0.9699 -0.2249
vn 0.0253 -0.9978 -0.0611
vn -0.0000 -0.9699 -0.2434
vn -0.0000 -0.9978 -0.0662
vn -0.0932 -0.9699 -0.2249
vn -0.0253 -0.9978 -0.0611
vn -0.1721 -0.9699 -0.1721
vn -0.0468 -0.9978 -0.0468
vn -0.2249 -0.9699 -0.0931
vn -0.0611 -0.9978 -0.0253
vn -0.2434 -0.9699 -0.0000
vn -0.0662 -0.9978 -0.0000
vn -0.2249 -0.9699 0.0931
vn -0.0611 -0.9978 0.0253
vn -0.1721 -0.9699 0.1721
vn -0.0468 -0.9978 0.0468
vn -0.0931 -0.9699 0.2249
vn -0.0253 -0.9978 0.0611
vn -0.3827 -0.0000 -0.9239
vn -0.3793 0.1332 -0.9156
vn -0.0000 0.1332 -0.9911
vn -0.0000 -0.0000 -1.0000
vn -0.3793 0.1333 -0.9156
vn -0.0000 0.1333 -0.9911
vn -0.3657 0.2944 -0.8829
vn -0.0000 0.2944 -0.9557
vn -0.7071 -0.0000 -0.7071
vn -0.7008 0.1332 -0.7008
vn -0.7008 0.1333 -0.7008
vn -0.6758 0.2944 -0.6758
vn -0.9239 -0.0000 -0.3827
vn -0.9156 0.1332 -0.3793
vn -0.9156 0.1333 -0.3793
vn -0.8829 0.2944 -0.3657
vn -1.0000 -0.0000 -0.0000
vn -0.9911 0.1332 -0.0000
vn -0.9911 0.1333 -0.0000
vn -0.9557 0.2944 -0.0000
vn -0.9239 -0.0000 0.3827
vn -0.9156 0.1332 0.3793
vn -0.9156 0.1333 0.3793
vn -0.8829 0.2944 0.3657
vn -0.7071 -0.0000 0.7071
vn -0.7008 0.1332 0.7008
vn -0.7008 0.1333 0.7008
vn -0.6758 0.2944 0.6758
vn -0.3827 -0.0000 0.9239
vn -0.3793 0.1332 0.9156
vn -0.3793 0.1333 0.9156
vn -0.3657 0.2944 0.8829
vn -0.0000 -0.0000 1.0000
vn -0.0000 0.1332 0.9911
vn -0.0000 0.1333 0.9911
vn -0.0000 0.2944 0.9557
vn 0.3827 -0.0000 0.9239
vn 0.3793 0.1332 0.9156
vn 0.3793 0.1333 0.9156
vn 0.3657 0.2944 0.8829
vn 0.7071 -0.0000 0.7071
vn 0.7008 0.1332 0.7008
vn 0.7008 0.1333 0.7008
vn 0.6758 0.2944 0.6758
vn 0.9239 -0.0000 0.3827
vn 0.9156 0.1332 0.3793
vn 0.9156 0.1333 0.3793
vn 0.8829 0.2944 0.3657
vn 1.0000 -0.0000 -0.0000
vn 0.9911 0.1332 -0.0000
vn 0.9911 0.1333 -0.0000
vn 0.9557 0.2944 -0.0000
vn 0.9239 -0.0000 -0.3827
vn 0.9156 0.1332 -0.3793
vn 0.9156 0.1333 -0.3793
vn 0.8829 0.2944 -0.3657
vn 0.7071 -0.0000 -0.7071
vn 0.7008 0.1332 -0.7008
vn 0.7008 0.1333 -0.7008
vn 0.6758 0.2944 -0.6758
vn 0.3827 -0.0000 -0.9239
vn 0.3793 0.1332 -0.9156
vn 0.3793 0.1333 -0.9156
vn 0.3657 0.2944 -0.8829
vn -0.3186 -0.5539 -0.7692
vn -0.3736 0.2158 -0.9021
vn -0.0000 0.2158 -0.9764
vn -0.0000 -0.5539 -0.8326
vn -0.5887 -0.5539 -0.5887
vn -0.6904 0.2158 -0.6905
vn -0.7692 -0.5539 -0.3186
vn -0.9021 0.2158 -0.3737
vn -0.8326 -0.5539 -0.0000
vn -0.9764 0.2158 -0.0000
vn -0.7692 -0.5539 0.3186
vn -0.9021 0.2158 0.3736
vn -0.5887 -0.5539 0.5887
vn -0.6905 0.2158 0.6904
vn -0.3186 -0.5539 0.7692
vn -0.3737 0.2158 0.9021
vn -0.0000 -0.5539 0.8326
vn -0.0000 0.2158 0.9764
vn 0.3186 -0.5539 0.7692
vn 0.3736 0.2158 0.9021
vn 0.5887 -0.5539 0.5887
vn 0.6904 0.2158 0.6905
vn 0.7692 -0.5539 0.3186
vn 0.9021 0.2158 0.3737
vn 0.8326 -0.5539 -0.0000
vn 0.9764 0.2158 -0.0000
vn 0.7692 -0.5539 -0.3186
vn 0.9021 0.2158 -0.3736
vn 0.5887 -0.5539 -0.5887
vn 0.6905 0.2158 -0.6904
vn 0.3186 -0.5539 -0.7692
vn 0.3737 0.2158 -0.9021
vn -0.3737 0.2159 -0.9021
vn -0.0000 0.2159 -0.9764
vn 0.3737 0.2159 -0.9021
vn -0.6904 0.2159 -0.6904
vn -0.9021 0.2159 -0.3737
vn -0.9764 0.2159 -0.0000
vn -0.9021 0.2159 0.3737
vn -0.6904 0.2159 0.6904
vn -0.3737 0.2159 0.9021
vn -0.0000 0.2159 0.9764
vn 0.3737 0.2159 0.9021
vn 0.6904 0.2159 0.6904
vn 0.9021 0.2159 0.3737
vn 0.9764 0.2159 -0.0000
vn 0.9021 0.2159 -0.3737
vn 0.6904 0.2159 -0.6904
vn -0.3657 0.2942 -0.8830
vn -0.3042 -0.6068 -0.7343
vn -0.0000 -0.6068 -0.7949
vn -0.0000 0.2942 -0.9557
vn -0.6758 0.2943 -0.6758
vn -0.5621 -0.6068 -0.5620
vn -0.8830 0.2942 -0.3657
vn -0.7344 -0.6068 -0.3042
vn -0.9557 0.2942 -0.0000
vn -0.7949 -0.6067 -0.0000
vn -0.8830 0.2942 0.3657
vn -0.7343 -0.6068 0.3042
vn -0.6758 0.2943 0.6758
vn -0.5620 -0.6068 0.5621
vn -0.3657 0.2942 0.8830
vn -0.3042 -0.6068 0.7344
vn -0.0000 0.2942 0.9557
vn -0.0000 -0.6067 0.7949
vn 0.3657 0.2942 0.8830
vn 0.3042 -0.6068 0.7343
vn 0.6758 0.2943 0.6758
vn 0.5621 -0.6068 0.5620
vn 0.8830 0.2942 0.3657
vn 0.7344 -0.6068 0.3042
vn 0.9557 0.2942 -0.0000
vn 0.7949 -0.6067 -0.0000
vn 0.8830 0.2942 -0.3657
vn 0.7343 -0.6068 -0.3042
vn 0.6758 0.2943 -0.6758
vn 0.5620 -0.6068 -0.5621
vn 0.3657 0.2942 -0.8830
vn 0.3042 -0.6068 -0.7344
vn -0.3827 -0.0033 -0.9239
vn -0.0000 -0.0033 -1.0000
vn -0.0000 -0.9564 -0.2920
vn -0.1117 -0.9564 -0.2698
vn -0.7071 -0.0033 -0.7071
vn -0.2064 -0.9564 -0.2064
vn -0.9239 -0.0033 -0.3827
vn -0.2698 -0.9564 -0.1117
vn -1.0000 -0.0033 -0.0000
vn -0.2920 -0.9564 -0.0000
vn -0.9239 -0.0033 0.3827
vn -0.2698 -0.9564 0.1117
vn -0.7071 -0.0033 0.7071
vn -0.2065 -0.9564 0.2064
vn -0.3827 -0.0033 0.9239
vn -0.1118 -0.9564 0.2697
vn -0.0000 -0.0033 1.0000
vn -0.0000 -0.9564 0.2920
vn 0.3827 -0.0033 0.9239
vn 0.1117 -0.9564 0.2698
vn 0.7071 -0.0033 0.7071
vn 0.2065 -0.9564 0.2065
vn 0.9239 -0.0033 0.3827
vn 0.2698 -0.9564 0.1117
vn 1.0000 -0.0033 -0.0000
vn 0.2920 -0.9564 -0.0000
vn 0.9239 -0.0033 -0.3827
vn 0.2698 -0.9564 -0.1117
vn 0.7071 -0.0033 -0.7071
vn 0.2064 -0.9564 -0.2065
vn 0.3827 -0.0033 -0.9239
vn 0.1117 -0.9564 -0.2698
vn -0.0004 1.0000 -0.0010
vn -0.0001 1.0000 -0.0011
vn -0.0000 -0.0032 -1.0000
vn -0.3828 -0.0032 -0.9238
vn -0.0008 1.0000 -0.0008
vn -0.7070 -0.0033 -0.7072
vn -0.0010 1.0000 -0.0004
vn -0.9239 -0.0032 -0.3826
vn -0.0011 1.0000 -0.0000
vn -0.0010 1.0000 0.0004
vn -0.9238 -0.0032 0.3827
vn -0.0008 1.0000 0.0008
vn -0.0004 1.0000 0.0010
vn -0.3826 -0.0032 0.9239
vn -0.0000 1.0000 0.0011
vn -0.0000 -0.0032 1.0000
vn 0.0004 1.0000 0.0010
vn 0.3828 -0.0032 0.9238
vn 0.0008 1.0000 0.0008
vn 0.7072 -0.0033 0.7070
vn 0.0010 1.0000 0.0004
vn 0.9239 -0.0032 0.3826
vn 0.0011 1.0000 -0.0000
vn 0.0010 1.0000 -0.0004
vn 0.9238 -0.0032 -0.3827
vn 0.0007 1.0000 -0.0008
vn 0.0004 1.0000 -0.0010
vn 0.3826 -0.0032 -0.9239
vn -0.0000 1.0000 -0.0012
vn -0.0005 1.0000 -0.0011
vn 0.0005 1.0000 -0.0011
vn -0.0011 1.0000 -0.0005
vn -0.0012 1.0000 -0.0000
vn -0.0011 1.0000 0.0005
vn -0.0005 1.0000 0.0011
vn -0.0000 1.0000 0.0012
vn 0.0005 1.0000 0.0011
vn 0.0011 1.0000 0.0005
vn 0.0012 1.0000 -0.0000
vn 0.0011 1.0000 -0.0005
vn 0.0008 1.0000 -0.0008
vt 0.000000 0.000000
s 1
usemtl Material.001
f 26/1/1 25/1/2 41/1/3 42/1/4
f 19/1/5 18/1/6 34/1/7 35/1/8
f 27/1/9 26/1/1 42/1/4 43/1/10
f 20/1/11 19/1/5 35/1/8 36/1/12
f 28/1/13 27/1/9 43/1/10 44/1/14
f 21/1/15 20/1/11 36/1/12 37/1/16
f 29/1/17 28/1/13 44/1/14 45/1/18
f 22/1/19 21/1/15 37/1/16 38/1/20
f 30/1/21 29/1/17 45/1/18 46/1/22
f 23/1/23 22/1/19 38/1/20 39/1/24
f 31/1/25 30/1/21 46/1/22 47/1/26
f 24/1/27 23/1/23 39/1/24 40/1/28
f 32/1/29 31/1/25 47/1/26 48/1/30
f 25/1/2 24/1/27 40/1/28 41/1/3
f 18/1/6 17/1/31 33/1/32 34/1/7
f 17/1/31 32/1/29 48/1/30 33/1/32
f 2/1/33 3/1/33 4/1/33 5/1/34 6/1/33 7/1/33 8/1/33 9/1/35 10/1/33 11/1/33 12/1/33 13/1/36 14/1/33 15/1/33 16/1/33 1/1/37
f 50/1/38 51/1/39 52/1/40 49/1/41
f 54/1/42 50/1/38 49/1/41 53/1/43
f 56/1/44 54/1/42 53/1/43 55/1/45
f 58/1/46 56/1/44 55/1/45 57/1/47
f 60/1/48 58/1/46 57/1/47 59/1/49
f 62/1/50 60/1/48 59/1/49 61/1/51
f 64/1/52 62/1/50 61/1/51 63/1/53
f 66/1/54 64/1/52 63/1/53 65/1/55
f 68/1/56 66/1/54 65/1/55 67/1/57
f 70/1/58 68/1/56 67/1/57 69/1/59
f 72/1/60 70/1/58 69/1/59 71/1/61
f 74/1/62 72/1/60 71/1/61 73/1/63
f 76/1/64 74/1/62 73/1/63 75/1/65
f 78/1/66 76/1/64 75/1/65 77/1/67
f 80/1/68 78/1/66 77/1/67 79/1/69
f 51/1/39 80/1/68 79/1/69 52/1/40
f 82/1/70 83/1/71 84/1/72 81/1/73
f 86/1/74 82/1/70 81/1/73 85/1/75
f 88/1/76 86/1/74 85/1/75 87/1/77
f 90/1/78 88/1/76 87/1/77 89/1/79
f 92/1/80 90/1/78 89/1/79 91/1/81
f 94/1/82 92/1/80 91/1/81 93/1/83
f 96/1/84 94/1/82 93/1/83 95/1/85
f 98/1/86 96/1/84 95/1/85 97/1/87
f 100/1/88 98/1/86 97/1/87 99/1/89
f 102/1/90 100/1/88 99/1/89 101/1/91
f 104/1/92 102/1/90 101/1/91 103/1/93
f 106/1/94 104/1/92 103/1/93 105/1/95
f 108/1/96 106/1/94 105/1/95 107/1/97
f 110/1/98 108/1/96 107/1/97 109/1/99
f 112/1/100 110/1/98 109/1/99 111/1/101
f 83/1/71 112/1/100 111/1/101 84/1/72
f 81/1/73 84/1/72 51/1/39 50/1/38
f 85/1/75 81/1/73 50/1/38 54/1/42
f 84/1/72 111/1/101 80/1/68 51/1/39
f 87/1/77 85/1/75 54/1/42 56/1/44
f 89/1/79 87/1/77 56/1/44 58/1/46
f 91/1/81 89/1/79 58/1/46 60/1/48
f 93/1/83 91/1/81 60/1/48 62/1/50
f 95/1/85 93/1/83 62/1/50 64/1/52
f 97/1/87 95/1/85 64/1/52 66/1/54
f 99/1/89 97/1/87 66/1/54 68/1/56
f 101/1/91 99/1/89 68/1/56 70/1/58
f 103/1/93 101/1/91 70/1/58 72/1/60
f 105/1/95 103/1/93 72/1/60 74/1/62
f 107/1/97 105/1/95 74/1/62 76/1/64
f 109/1/99 107/1/97 76/1/64 78/1/66
f 111/1/101 109/1/99 78/1/66 80/1/68
f 2/1/33 1/1/37 83/1/71 82/1/70
f 3/1/33 2/1/33 82/1/70 86/1/74
f 1/1/37 16/1/33 112/1/100 83/1/71
f 4/1/33 3/1/33 86/1/74 88/1/76
f 5/1/34 4/1/33 88/1/76 90/1/78
f 6/1/33 5/1/34 90/1/78 92/1/80
f 7/1/33 6/1/33 92/1/80 94/1/82
f 8/1/33 7/1/33 94/1/82 96/1/84
f 9/1/35 8/1/33 96/1/84 98/1/86
f 10/1/33 9/1/35 98/1/86 100/1/88
f 11/1/33 10/1/33 100/1/88 102/1/90
f 12/1/33 11/1/33 102/1/90 104/1/92
f 13/1/36 12/1/33 104/1/92 106/1/94
f 14/1/33 13/1/36 106/1/94 108/1/96
f 15/1/33 14/1/33 108/1/96 110/1/98
f 16/1/33 15/1/33 110/1/98 112/1/100
f 118/1/102 113/1/32 115/1/103 120/1/104
f 120/1/104 115/1/103 116/1/105 119/1/106
f 119/1/106 116/1/105 114/1/107 117/1/108
f 122/1/109 118/1/102 120/1/104 124/1/110
f 124/1/110 120/1/104 119/1/106 123/1/111
f 123/1/111 119/1/106 117/1/108 121/1/112
f 126/1/113 122/1/109 124/1/110 128/1/114
f 128/1/114 124/1/110 123/1/111 127/1/115
f 127/1/115 123/1/111 121/1/112 125/1/116
f 130/1/16 126/1/113 128/1/114 132/1/117
f 132/1/117 128/1/114 127/1/115 131/1/118
f 131/1/118 127/1/115 125/1/116 129/1/119
f 134/1/120 130/1/16 132/1/117 136/1/121
f 136/1/121 132/1/117 131/1/118 135/1/122
f 135/1/122 131/1/118 129/1/119 133/1/123
f 138/1/124 134/1/120 136/1/121 140/1/125
f 140/1/125 136/1/121 135/1/122 139/1/126
f 139/1/126 135/1/122 133/1/123 137/1/127
f 142/1/128 138/1/124 140/1/125 144/1/129
f 144/1/129 140/1/125 139/1/126 143/1/130
f 143/1/130 139/1/126 137/1/127 141/1/131
f 146/1/3 142/1/128 144/1/129 148/1/132
f 148/1/132 144/1/129 143/1/130 147/1/133
f 147/1/133 143/1/130 141/1/131 145/1/134
f 150/1/135 146/1/3 148/1/132 152/1/136
f 152/1/136 148/1/132 147/1/133 151/1/137
f 151/1/137 147/1/133 145/1/134 149/1/138
f 154/1/139 150/1/135 152/1/136 156/1/140
f 156/1/140 152/1/136 151/1/137 155/1/141
f 155/1/141 151/1/137 149/1/138 153/1/142
f 158/1/143 154/1/139 156/1/140 160/1/144
f 160/1/144 156/1/140 155/1/141 159/1/145
f 159/1/145 155/1/141 153/1/142 157/1/146
f 162/1/18 158/1/143 160/1/144 164/1/147
f 164/1/147 160/1/144 159/1/145 163/1/148
f 163/1/148 159/1/145 157/1/146 161/1/149
f 166/1/150 162/1/18 164/1/147 168/1/151
f 168/1/151 164/1/147 163/1/148 167/1/152
f 167/1/152 163/1/148 161/1/149 165/1/153
f 170/1/154 166/1/150 168/1/151 172/1/155
f 172/1/155 168/1/151 167/1/152 171/1/156
f 171/1/156 167/1/152 165/1/153 169/1/157
f 174/1/158 170/1/154 172/1/155 176/1/159
f 176/1/159 172/1/155 171/1/156 175/1/160
f 175/1/160 171/1/156 169/1/157 173/1/161
f 113/1/32 174/1/158 176/1/159 115/1/103
f 115/1/103 176/1/159 175/1/160 116/1/105
f 116/1/105 175/1/160 173/1/161 114/1/107
f 49/1/102 52/1/32 113/1/32 118/1/102
f 52/1/32 79/1/158 174/1/158 113/1/32
f 53/1/109 49/1/102 118/1/102 122/1/109
f 55/1/113 53/1/109 122/1/109 126/1/113
f 57/1/16 55/1/113 126/1/113 130/1/16
f 59/1/120 57/1/16 130/1/16 134/1/120
f 61/1/124 59/1/120 134/1/120 138/1/124
f 63/1/128 61/1/124 138/1/124 142/1/128
f 65/1/3 63/1/128 142/1/128 146/1/3
f 67/1/135 65/1/3 146/1/3 150/1/135
f 69/1/139 67/1/135 150/1/135 154/1/139
f 71/1/143 69/1/139 154/1/139 158/1/143
f 73/1/18 71/1/143 158/1/143 162/1/18
f 75/1/150 73/1/18 162/1/18 166/1/150
f 77/1/154 75/1/150 166/1/150 170/1/154
f 79/1/158 77/1/154 170/1/154 174/1/158
f 180/1/162 177/1/163 178/1/164 179/1/165
f 182/1/166 180/1/162 179/1/165 181/1/167
f 184/1/168 182/1/166 181/1/167 183/1/169
f 186/1/170 184/1/168 183/1/169 185/1/15
f 188/1/171 186/1/170 185/1/15 187/1/172
f 190/1/173 188/1/171 187/1/172 189/1/174
f 192/1/175 190/1/173 189/1/174 191/1/176
f 194/1/177 192/1/175 191/1/176 193/1/178
f 196/1/179 194/1/177 193/1/178 195/1/180
f 198/1/181 196/1/179 195/1/180 197/1/182
f 200/1/183 198/1/181 197/1/182 199/1/184
f 202/1/185 200/1/183 199/1/184 201/1/17
f 204/1/186 202/1/185 201/1/17 203/1/187
f 206/1/188 204/1/186 203/1/187 205/1/189
f 208/1/190 206/1/188 205/1/189 207/1/191
f 177/1/163 208/1/190 207/1/191 178/1/164
f 179/1/165 178/1/164 17/1/31 18/1/6
f 178/1/164 207/1/191 32/1/29 17/1/31
f 181/1/167 179/1/165 18/1/6 19/1/5
f 183/1/169 181/1/167 19/1/5 20/1/11
f 185/1/15 183/1/169 20/1/11 21/1/15
f 187/1/172 185/1/15 21/1/15 22/1/19
f 189/1/174 187/1/172 22/1/19 23/1/23
f 191/1/176 189/1/174 23/1/23 24/1/27
f 193/1/178 191/1/176 24/1/27 25/1/2
f 195/1/180 193/1/178 25/1/2 26/1/1
f 197/1/182 195/1/180 26/1/1 27/1/9
f 199/1/184 197/1/182 27/1/9 28/1/13
f 201/1/17 199/1/184 28/1/13 29/1/17
f 203/1/187 201/1/17 29/1/17 30/1/21
f 205/1/189 203/1/187 30/1/21 31/1/25
f 207/1/191 205/1/189 31/1/25 32/1/29
f 212/1/192 209/1/107 210/1/193 211/1/194
f 214/1/195 212/1/192 211/1/194 213/1/196
f 216/1/197 214/1/195 213/1/196 215/1/198
f 218/1/119 216/1/197 215/1/198 217/1/199
f 220/1/200 218/1/119 217/1/199 219/1/201
f 222/1/202 220/1/200 219/1/201 221/1/203
f 224/1/204 222/1/202 221/1/203 223/1/205
f 226/1/134 224/1/204 223/1/205 225/1/206
f 228/1/207 226/1/134 225/1/206 227/1/208
f 230/1/209 228/1/207 227/1/208 229/1/210
f 232/1/211 230/1/209 229/1/210 231/1/212
f 234/1/149 232/1/211 231/1/212 233/1/213
f 236/1/214 234/1/149 233/1/213 235/1/215
f 238/1/216 236/1/214 235/1/215 237/1/217
f 240/1/218 238/1/216 237/1/217 239/1/219
f 209/1/107 240/1/218 239/1/219 210/1/193
f 211/1/194 210/1/193 177/1/163 180/1/162
f 117/1/108 114/1/107 209/1/107 212/1/192
f 210/1/193 239/1/219 208/1/190 177/1/163
f 114/1/107 173/1/161 240/1/218 209/1/107
f 121/1/112 117/1/108 212/1/192 214/1/195
f 213/1/196 211/1/194 180/1/162 182/1/166
f 125/1/116 121/1/112 214/1/195 216/1/197
f 215/1/198 213/1/196 182/1/166 184/1/168
f 129/1/119 125/1/116 216/1/197 218/1/119
f 217/1/199 215/1/198 184/1/168 186/1/170
f 133/1/123 129/1/119 218/1/119 220/1/200
f 219/1/201 217/1/199 186/1/170 188/1/171
f 137/1/127 133/1/123 220/1/200 222/1/202
f 221/1/203 219/1/201 188/1/171 190/1/173
f 141/1/131 137/1/127 222/1/202 224/1/204
f 223/1/205 221/1/203 190/1/173 192/1/175
f 145/1/134 141/1/131 224/1/204 226/1/134
f 225/1/206 223/1/205 192/1/175 194/1/177
f 149/1/138 145/1/134 226/1/134 228/1/207
f 227/1/208 225/1/206 194/1/177 196/1/179
f 153/1/142 149/1/138 228/1/207 230/1/209
f 229/1/210 227/1/208 196/1/179 198/1/181
f 157/1/146 153/1/142 230/1/209 232/1/211
f 231/1/212 229/1/210 198/1/181 200/1/183
f 161/1/149 157/1/146 232/1/211 234/1/149
f 233/1/213 231/1/212 200/1/183 202/1/185
f 165/1/153 161/1/149 234/1/149 236/1/214
f 235/1/215 233/1/213 202/1/185 204/1/186
f 169/1/157 165/1/153 236/1/214 238/1/216
f 237/1/217 235/1/215 204/1/186 206/1/188
f 173/1/161 169/1/157 238/1/216 240/1/218
f 239/1/219 237/1/217 206/1/188 208/1/190
f 242/1/220 241/1/220 256/1/220 255/1/220 254/1/220 253/1/220 252/1/220 251/1/220 250/1/220 249/1/220 248/1/220 247/1/220 246/1/220 245/1/220 244/1/220 243/1/220
f 274/1/221 273/1/222 276/1/223 275/1/224
f 278/1/225 277/1/226 273/1/222 274/1/221
f 280/1/227 279/1/228 277/1/226 278/1/225
f 282/1/229 281/1/230 279/1/228 280/1/227
f 284/1/231 283/1/232 281/1/230 282/1/229
f 286/1/233 285/1/234 283/1/232 284/1/231
f 288/1/235 287/1/236 285/1/234 286/1/233
f 290/1/237 289/1/238 287/1/236 288/1/235
f 292/1/239 291/1/240 289/1/238 290/1/237
f 294/1/241 293/1/242 291/1/240 292/1/239
f 296/1/243 295/1/244 293/1/242 294/1/241
f 298/1/245 297/1/246 295/1/244 296/1/243
f 300/1/247 299/1/248 297/1/246 298/1/245
f 302/1/249 301/1/250 299/1/248 300/1/247
f 304/1/251 303/1/252 301/1/250 302/1/249
f 275/1/224 276/1/223 303/1/252 304/1/251
f 306/1/253 305/1/254 308/1/255 307/1/256
f 310/1/257 309/1/258 305/1/254 306/1/253
f 312/1/259 311/1/260 309/1/258 310/1/257
f 314/1/261 313/1/262 311/1/260 312/1/259
f 316/1/263 315/1/264 313/1/262 314/1/261
f 318/1/265 317/1/266 315/1/264 316/1/263
f 320/1/267 319/1/268 317/1/266 318/1/265
f 322/1/269 321/1/270 319/1/268 320/1/267
f 324/1/271 323/1/272 321/1/270 322/1/269
f 326/1/273 325/1/274 323/1/272 324/1/271
f 328/1/275 327/1/276 325/1/274 326/1/273
f 330/1/277 329/1/278 327/1/276 328/1/275
f 332/1/279 331/1/280 329/1/278 330/1/277
f 334/1/281 333/1/282 331/1/280 332/1/279
f 336/1/283 335/1/284 333/1/282 334/1/281
f 307/1/256 308/1/255 335/1/284 336/1/283
f 305/1/254 274/1/221 275/1/224 308/1/255
f 309/1/258 278/1/225 274/1/221 305/1/254
f 308/1/255 275/1/224 304/1/251 335/1/284
f 311/1/260 280/1/227 278/1/225 309/1/258
f 313/1/262 282/1/229 280/1/227 311/1/260
f 315/1/264 284/1/231 282/1/229 313/1/262
f 317/1/266 286/1/233 284/1/231 315/1/264
f 319/1/268 288/1/235 286/1/233 317/1/266
f 321/1/270 290/1/237 288/1/235 319/1/268
f 323/1/272 292/1/239 290/1/237 321/1/270
f 325/1/274 294/1/241 292/1/239 323/1/272
f 327/1/276 296/1/243 294/1/241 325/1/274
f 329/1/278 298/1/245 296/1/243 327/1/276
f 331/1/280 300/1/247 298/1/245 329/1/278
f 333/1/282 302/1/249 300/1/247 331/1/280
f 335/1/284 304/1/251 302/1/249 333/1/282
f 242/1/220 306/1/253 307/1/256 241/1/220
f 243/1/220 310/1/257 306/1/253 242/1/220
f 241/1/220 307/1/256 336/1/283 256/1/220
f 244/1/220 312/1/259 310/1/257 243/1/220
f 245/1/220 314/1/261 312/1/259 244/1/220
f 246/1/220 316/1/263 314/1/261 245/1/220
f 247/1/220 318/1/265 316/1/263 246/1/220
f 248/1/220 320/1/267 318/1/265 247/1/220
f 249/1/220 322/1/269 320/1/267 248/1/220
f 250/1/220 324/1/271 322/1/269 249/1/220
f 251/1/220 326/1/273 324/1/271 250/1/220
f 252/1/220 328/1/275 326/1/273 251/1/220
f 253/1/220 330/1/277 328/1/275 252/1/220
f 254/1/220 332/1/279 330/1/277 253/1/220
f 255/1/220 334/1/281 332/1/279 254/1/220
f 256/1/220 336/1/283 334/1/281 255/1/220
f 342/1/285 344/1/286 339/1/287 337/1/288
f 344/1/286 343/1/289 340/1/290 339/1/287
f 343/1/289 341/1/291 338/1/292 340/1/290
f 346/1/293 348/1/294 344/1/286 342/1/285
f 348/1/294 347/1/295 343/1/289 344/1/286
f 347/1/295 345/1/296 341/1/291 343/1/289
f 350/1/297 352/1/298 348/1/294 346/1/293
f 352/1/298 351/1/299 347/1/295 348/1/294
f 351/1/299 349/1/300 345/1/296 347/1/295
f 354/1/301 356/1/302 352/1/298 350/1/297
f 356/1/302 355/1/303 351/1/299 352/1/298
f 355/1/303 353/1/304 349/1/300 351/1/299
f 358/1/305 360/1/306 356/1/302 354/1/301
f 360/1/306 359/1/307 355/1/303 356/1/302
f 359/1/307 357/1/308 353/1/304 355/1/303
f 362/1/309 364/1/310 360/1/306 358/1/305
f 364/1/310 363/1/311 359/1/307 360/1/306
f 363/1/311 361/1/312 357/1/308 359/1/307
f 366/1/313 368/1/314 364/1/310 362/1/309
f 368/1/314 367/1/315 363/1/311 364/1/310
f 367/1/315 365/1/316 361/1/312 363/1/311
f 370/1/317 372/1/318 368/1/314 366/1/313
f 372/1/318 371/1/319 367/1/315 368/1/314
f 371/1/319 369/1/320 365/1/316 367/1/315
f 374/1/321 376/1/322 372/1/318 370/1/317
f 376/1/322 375/1/323 371/1/319 372/1/318
f 375/1/323 373/1/324 369/1/320 371/1/319
f 378/1/325 380/1/326 376/1/322 374/1/321
f 380/1/326 379/1/327 375/1/323 376/1/322
f 379/1/327 377/1/328 373/1/324 375/1/323
f 382/1/329 384/1/330 380/1/326 378/1/325
f 384/1/330 383/1/331 379/1/327 380/1/326
f 383/1/331 381/1/332 377/1/328 379/1/327
f 386/1/333 388/1/334 384/1/330 382/1/329
f 388/1/334 387/1/335 383/1/331 384/1/330
f 387/1/335 385/1/336 381/1/332 383/1/331
f 390/1/337 392/1/338 388/1/334 386/1/333
f 392/1/338 391/1/339 387/1/335 388/1/334
f 391/1/339 389/1/340 385/1/336 387/1/335
f 394/1/341 396/1/342 392/1/338 390/1/337
f 396/1/342 395/1/343 391/1/339 392/1/338
f 395/1/343 393/1/344 389/1/340 391/1/339
f 398/1/345 400/1/346 396/1/342 394/1/341
f 400/1/346 399/1/347 395/1/343 396/1/342
f 399/1/347 397/1/348 393/1/344 395/1/343
f 337/1/288 339/1/287 400/1/346 398/1/345
f 339/1/287 340/1/290 399/1/347 400/1/346
f 340/1/290 338/1/292 397/1/348 399/1/347
f 273/1/222 342/1/285 337/1/288 276/1/223
f 276/1/223 337/1/288 398/1/345 303/1/252
f 277/1/226 346/1/293 342/1/285 273/1/222
f 279/1/228 350/1/297 346/1/293 277/1/226
f 281/1/230 354/1/301 350/1/297 279/1/228
f 283/1/232 358/1/305 354/1/301 281/1/230
f 285/1/234 362/1/309 358/1/305 283/1/232
f 287/1/236 366/1/313 362/1/309 285/1/234
f 289/1/238 370/1/317 366/1/313 287/1/236
f 291/1/240 374/1/321 370/1/317 289/1/238
f 293/1/242 378/1/325 374/1/321 291/1/240
f 295/1/244 382/1/329 378/1/325 293/1/242
f 297/1/246 386/1/333 382/1/329 295/1/244
f 299/1/248 390/1/337 386/1/333 297/1/246
f 301/1/250 394/1/341 390/1/337 299/1/248
f 303/1/252 398/1/345 394/1/341 301/1/250
f 404/1/349 403/1/350 402/1/351 401/1/352
f 406/1/353 405/1/354 403/1/350 404/1/349
f 408/1/355 407/1/356 405/1/354 406/1/353
f 410/1/357 409/1/358 407/1/356 408/1/355
f 412/1/359 411/1/360 409/1/358 410/1/357
f 414/1/361 413/1/362 411/1/360 412/1/359
f 416/1/363 415/1/364 413/1/362 414/1/361
f 418/1/365 417/1/366 415/1/364 416/1/363
f 420/1/367 419/1/368 417/1/366 418/1/365
f 422/1/369 421/1/370 419/1/368 420/1/367
f 424/1/371 423/1/372 421/1/370 422/1/369
f 426/1/373 425/1/374 423/1/372 424/1/371
f 428/1/375 427/1/376 425/1/374 426/1/373
f 430/1/377 429/1/378 427/1/376 428/1/375
f 432/1/379 431/1/380 429/1/378 430/1/377
f 401/1/352 402/1/351 431/1/380 432/1/379
f 403/1/350 258/1/381 257/1/382 402/1/351
f 402/1/351 257/1/382 272/1/383 431/1/380
f 405/1/354 259/1/384 258/1/381 403/1/350
f 407/1/356 260/1/385 259/1/384 405/1/354
f 409/1/358 261/1/386 260/1/385 407/1/356
f 411/1/360 262/1/387 261/1/386 409/1/358
f 413/1/362 263/1/388 262/1/387 411/1/360
f 415/1/364 264/1/389 263/1/388 413/1/362
f 417/1/366 265/1/390 264/1/389 415/1/364
f 419/1/368 266/1/391 265/1/390 417/1/366
f 421/1/370 267/1/392 266/1/391 419/1/368
f 423/1/372 268/1/393 267/1/392 421/1/370
f 425/1/374 269/1/394 268/1/393 423/1/372
f 427/1/376 270/1/395 269/1/394 425/1/374
f 429/1/378 271/1/396 270/1/395 427/1/376
f 431/1/380 272/1/383 271/1/396 429/1/378
f 436/1/397 435/1/398 434/1/399 433/1/400
f 438/1/401 437/1/402 435/1/398 436/1/397
f 440/1/403 439/1/404 437/1/402 438/1/401
f 442/1/405 441/1/406 439/1/404 440/1/403
f 444/1/407 443/1/408 441/1/406 442/1/405
f 446/1/409 445/1/410 443/1/408 444/1/407
f 448/1/411 447/1/412 445/1/410 446/1/409
f 450/1/413 449/1/414 447/1/412 448/1/411
f 452/1/415 451/1/416 449/1/414 450/1/413
f 454/1/417 453/1/418 451/1/416 452/1/415
f 456/1/419 455/1/420 453/1/418 454/1/417
f 458/1/421 457/1/422 455/1/420 456/1/419
f 460/1/423 459/1/424 457/1/422 458/1/421
f 462/1/425 461/1/426 459/1/424 460/1/423
f 464/1/427 463/1/428 461/1/426 462/1/425
f 433/1/400 434/1/399 463/1/428 464/1/427
f 435/1/398 404/1/349 401/1/352 434/1/399
f 341/1/291 436/1/397 433/1/400 338/1/292
f 434/1/399 401/1/352 432/1/379 463/1/428
f 338/1/292 433/1/400 464/1/427 397/1/348
f 345/1/296 438/1/401 436/1/397 341/1/291
f 437/1/402 406/1/353 404/1/349 435/1/398
f 349/1/300 440/1/403 438/1/401 345/1/296
f 439/1/404 408/1/355 406/1/353 437/1/402
f 353/1/304 442/1/405 440/1/403 349/1/300
f 441/1/406 410/1/357 408/1/355 439/1/404
f 357/1/308 444/1/407 442/1/405 353/1/304
f 443/1/408 412/1/359 410/1/357 441/1/406
f 361/1/312 446/1/409 444/1/407 357/1/308
f 445/1/410 414/1/361 412/1/359 443/1/408
f 365/1/316 448/1/411 446/1/409 361/1/312
f 447/1/412 416/1/363 414/1/361 445/1/410
f 369/1/320 450/1/413 448/1/411 365/1/316
f 449/1/414 418/1/365 416/1/363 447/1/412
f 373/1/324 452/1/415 450/1/413 369/1/320
f 451/1/416 420/1/367 418/1/365 449/1/414
f 377/1/328 454/1/417 452/1/415 373/1/324
f 453/1/418 422/1/369 420/1/367 451/1/416
f 381/1/332 456/1/419 454/1/417 377/1/328
f 455/1/420 424/1/371 422/1/369 453/1/418
f 385/1/336 458/1/421 456/1/419 381/1/332
f 457/1/422 426/1/373 424/1/371 455/1/420
f 389/1/340 460/1/423 458/1/421 385/1/336
f 459/1/424 428/1/375 426/1/373 457/1/422
f 393/1/344 462/1/425 460/1/423 389/1/340
f 461/1/426 430/1/377 428/1/375 459/1/424
f 397/1/348 464/1/427 462/1/425 393/1/344
f 463/1/428 432/1/379 430/1/377 461/1/426
f 466/1/429 467/1/430 468/1/431 465/1/432
f 470/1/433 466/1/429 465/1/432 469/1/434
f 472/1/435 470/1/433 469/1/434 471/1/436
f 474/1/437 472/1/435 471/1/436 473/1/438
f 476/1/439 474/1/437 473/1/438 475/1/440
f 478/1/441 476/1/439 475/1/440 477/1/442
f 480/1/443 478/1/441 477/1/442 479/1/444
f 482/1/445 480/1/443 479/1/444 481/1/446
f 484/1/447 482/1/445 481/1/446 483/1/448
f 486/1/449 484/1/447 483/1/448 485/1/450
f 488/1/451 486/1/449 485/1/450 487/1/452
f 490/1/453 488/1/451 487/1/452 489/1/454
f 492/1/455 490/1/453 489/1/454 491/1/456
f 494/1/457 492/1/455 491/1/456 493/1/458
f 496/1/459 494/1/457 493/1/458 495/1/460
f 467/1/430 496/1/459 495/1/460 468/1/431
f 498/1/461 499/1/462 500/1/463 497/1/464
f 502/1/465 498/1/461 497/1/464 501/1/466
f 504/1/467 502/1/465 501/1/466 503/1/468
f 506/1/469 504/1/467 503/1/468 505/1/437
f 508/1/470 506/1/469 505/1/437 507/1/471
f 510/1/472 508/1/470 507/1/471 509/1/441
f 512/1/473 510/1/472 509/1/441 511/1/474
f 514/1/475 512/1/473 511/1/474 513/1/476
f 516/1/477 514/1/475 513/1/476 515/1/478
f 518/1/479 516/1/477 515/1/478 517/1/480
f 520/1/481 518/1/479 517/1/480 519/1/482
f 522/1/483 520/1/481 519/1/482 521/1/453
f 524/1/484 522/1/483 521/1/453 523/1/485
f 526/1/486 524/1/484 523/1/485 525/1/457
f 528/1/487 526/1/486 525/1/457 527/1/488
f 499/1/462 528/1/487 527/1/488 500/1/463
f 257/1/220 258/1/220 465/1/432 468/1/431
f 470/1/433 501/1/466 497/1/464 466/1/429
f 466/1/429 497/1/464 500/1/463 467/1/430
f 258/1/220 259/1/220 469/1/434 465/1/432
f 272/1/220 257/1/220 468/1/431 495/1/460
f 467/1/430 500/1/463 527/1/488 496/1/459
f 472/1/435 503/1/468 501/1/466 470/1/433
f 259/1/220 260/1/220 471/1/436 469/1/434
f 474/1/437 505/1/437 503/1/468 472/1/435
f 260/1/220 261/1/220 473/1/438 471/1/436
f 261/1/220 262/1/220 475/1/440 473/1/438
f 476/1/439 507/1/471 505/1/437 474/1/437
f 478/1/441 509/1/441 507/1/471 476/1/439
f 262/1/220 263/1/220 477/1/442 475/1/440
f 480/1/443 511/1/474 509/1/441 478/1/441
f 263/1/220 264/1/220 479/1/444 477/1/442
f 482/1/445 513/1/476 511/1/474 480/1/443
f 264/1/220 265/1/220 481/1/446 479/1/444
f 484/1/447 515/1/478 513/1/476 482/1/445
f 265/1/220 266/1/220 483/1/448 481/1/446
f 486/1/449 517/1/480 515/1/478 484/1/447
f 266/1/220 267/1/220 485/1/450 483/1/448
f 488/1/451 519/1/482 517/1/480 486/1/449
f 267/1/220 268/1/220 487/1/452 485/1/450
f 490/1/453 521/1/453 519/1/482 488/1/451
f 268/1/220 269/1/220 489/1/454 487/1/452
f 492/1/455 523/1/485 521/1/453 490/1/453
f 269/1/220 270/1/220 491/1/456 489/1/454
f 494/1/457 525/1/457 523/1/485 492/1/455
f 270/1/220 271/1/220 493/1/458 491/1/456
f 496/1/459 527/1/488 525/1/457 494/1/457
f 271/1/220 272/1/220 495/1/460 493/1/458
f 33/1/489 499/1/462 498/1/461 34/1/490
f 34/1/490 498/1/461 502/1/465 35/1/465
f 48/1/491 528/1/487 499/1/462 33/1/489
f 35/1/465 502/1/465 504/1/467 36/1/492
f 36/1/492 504/1/467 506/1/469 37/1/493
f 37/1/493 506/1/469 508/1/470 38/1/494
f 38/1/494 508/1/470 510/1/472 39/1/472
f 39/1/472 510/1/472 512/1/473 40/1/495
f 40/1/495 512/1/473 514/1/475 41/1/496
f 41/1/496 514/1/475 516/1/477 42/1/497
f 42/1/497 516/1/477 518/1/479 43/1/479
f 43/1/479 518/1/479 520/1/481 44/1/498
f 44/1/498 520/1/481 522/1/483 45/1/499
f 45/1/499 522/1/483 524/1/484 46/1/500
f 46/1/500 524/1/484 526/1/486 47/1/501
f 47/1/501 526/1/486 528/1/487 48/1/491
