# Blender 5.1.2
# www.blender.org
mtllib Room.mtl
o Room
v -11.167912 -1.804522 -11.098707
v 11.167912 -1.804522 -11.098707
v -11.167912 8.055968 -11.098708
v 11.167912 8.055968 -11.098708
v -11.236882 -1.767403 -10.948647
v -11.236882 -0.796518 -11.120709
v 11.236882 -1.767403 -10.948647
v 11.236882 -0.796518 -11.120709
v -11.236882 -0.849774 -10.948647
v -11.236882 -0.796518 -11.001904
v 11.236882 -0.796518 -11.001904
v 11.236882 -0.849774 -10.948647
v -11.167912 6.802572 -11.098708
v 11.167912 6.802572 -11.098708
v -11.167912 6.802572 -10.657026
v -11.167912 7.279523 -10.180076
v 11.167912 7.279523 -10.180076
v 11.167912 6.802572 -10.657026
v -11.167912 6.976783 -10.657026
v -11.167912 7.279523 -10.354288
v -11.167912 7.190852 -10.568357
v 11.167912 7.279523 -10.354288
v 11.167912 6.976783 -10.657026
v 11.167912 7.190852 -10.568357
v -11.167912 7.662696 -10.180076
v 11.167912 7.662696 -10.180076
v -11.167912 8.045870 -9.802149
v 11.167912 8.045870 -9.802149
v 11.167912 7.662696 -9.802149
v -11.167912 7.662696 -9.802149
v -11.098706 -1.804520 11.167912
v -11.098706 -1.804522 -11.167912
v -11.098706 8.055970 11.167911
v -11.098706 8.055968 -11.167912
v -10.948647 -1.767401 11.236881
v -11.120708 -0.796516 11.236881
v -10.948647 -1.767403 -11.236881
v -11.120708 -0.796518 -11.236881
v -10.948647 -0.849772 11.236881
v -11.001904 -0.796516 11.236881
v -11.001904 -0.796518 -11.236881
v -10.948647 -0.849774 -11.236881
v -11.098706 6.802574 11.167911
v -11.098706 6.802572 -11.167912
v -10.657024 6.802574 11.167911
v -10.180074 7.279525 11.167911
v -10.180074 7.279523 -11.167912
v -10.657024 6.802572 -11.167912
v -10.657024 6.976785 11.167911
v -10.354286 7.279525 11.167911
v -10.568355 7.190854 11.167911
v -10.354286 7.279523 -11.167912
v -10.657024 6.976783 -11.167912
v -10.568355 7.190852 -11.167912
v -10.180074 7.662698 11.167911
v -10.180074 7.662696 -11.167912
v -9.802147 8.045872 11.167911
v -9.802147 8.045870 -11.167912
v -9.802147 7.662696 -11.167912
v -9.802147 7.662698 11.167911
v 11.098706 -1.804522 -11.167912
v 11.098706 -1.804520 11.167912
v 11.098706 8.055968 -11.167912
v 11.098706 8.055970 11.167911
v 10.948647 -1.767403 -11.236881
v 11.120708 -0.796518 -11.236881
v 10.948647 -1.767401 11.236881
v 11.120708 -0.796516 11.236881
v 10.948647 -0.849774 -11.236881
v 11.001904 -0.796518 -11.236881
v 11.001904 -0.796516 11.236881
v 10.948647 -0.849772 11.236881
v 11.098706 6.802572 -11.167912
v 11.098706 6.802574 11.167911
v 10.657024 6.802572 -11.167912
v 10.180074 7.279523 -11.167912
v 10.180074 7.279525 11.167911
v 10.657024 6.802574 11.167911
v 10.657024 6.976783 -11.167912
v 10.354286 7.279523 -11.167912
v 10.568355 7.190852 -11.167912
v 10.354286 7.279525 11.167911
v 10.657024 6.976785 11.167911
v 10.568355 7.190854 11.167911
v 10.180074 7.662696 -11.167912
v 10.180074 7.662698 11.167911
v 9.802147 8.045870 -11.167912
v 9.802147 8.045872 11.167911
v 9.802147 7.662698 11.167911
v 9.802147 7.662696 -11.167912
v -11.164844 -1.716971 11.164844
v 11.164844 -1.716971 11.164844
v -11.164844 -1.716973 -11.164844
v 11.164844 -1.716973 -11.164844
v -11.164844 7.980207 11.164843
v 11.164844 7.980207 11.164843
v -11.164844 7.980205 -11.164845
v 11.164844 7.980205 -11.164845
vn -0.0000 -0.0000 1.0000
vn -0.0000 0.9999 0.0141
vn -0.0000 0.0218 0.9998
vn -0.0000 0.9999 0.0140
vn -0.0000 1.0000 -0.0000
vn -0.0000 -1.0000 -0.0000
vn -0.0000 -0.3866 0.9222
vn -0.0000 -0.7071 0.7071
vn -0.0000 -0.9222 0.3866
vn 1.0000 -0.0000 -0.0000
vn 0.0141 0.9999 -0.0000
vn 0.9998 0.0218 -0.0000
vn 0.0140 0.9999 -0.0000
vn 0.9222 -0.3866 -0.0000
vn 0.7071 -0.7071 -0.0000
vn 0.3866 -0.9222 -0.0000
vn -1.0000 -0.0000 -0.0000
vn -0.0141 0.9999 -0.0000
vn -0.9998 0.0218 -0.0000
vn -0.0140 0.9999 -0.0000
vn -0.9222 -0.3866 -0.0000
vn -0.7071 -0.7071 -0.0000
vn -0.3866 -0.9222 -0.0000
vn -0.0000 0.0001 1.0000
vn 1.0000 0.0001 -0.0000
vn -1.0000 0.0001 -0.0000
vt 0.219844 0.995148
vt 0.001795 0.500199
vt 0.219844 0.500199
vt 0.961498 0.998205
vt 0.960318 0.500199
vt 0.961498 0.500199
vt 0.666712 0.998205
vt 0.687004 0.500199
vt 0.687004 0.998205
vt 0.964130 0.998205
vt 0.964130 0.500199
vt 0.748143 0.995148
vt 0.738360 0.500199
vt 0.748143 0.500199
vt 0.783351 0.995148
vt 0.778490 0.500199
vt 0.783351 0.500199
vt 0.824060 0.995148
vt 0.819260 0.500199
vt 0.824060 0.500199
vt 0.815401 0.500199
vt 0.819260 0.995148
vt 0.815401 0.995148
vt 0.787203 0.995148
vt 0.872578 0.995148
vt 0.864105 0.500199
vt 0.872578 0.500199
vt 0.860514 0.995148
vt 0.852041 0.500199
vt 0.860514 0.500199
vt 0.932796 0.995148
vt 0.924425 0.500199
vt 0.932796 0.500199
vt 0.441483 0.995148
vt 0.223434 0.500199
vt 0.441483 0.500199
vt 0.970354 0.500199
vt 0.971534 0.998205
vt 0.970354 0.998205
vt 0.690595 0.998205
vt 0.710887 0.500199
vt 0.710887 0.998205
vt 0.967721 0.500199
vt 0.967721 0.998205
vt 0.761521 0.994926
vt 0.751734 0.500199
vt 0.761521 0.500199
vt 0.795654 0.995148
vt 0.790794 0.500199
vt 0.795655 0.500199
vt 0.836255 0.994985
vt 0.831512 0.500199
vt 0.836255 0.500258
vt 0.827651 0.500199
vt 0.831512 0.994926
vt 0.827651 0.994926
vt 0.799507 0.995148
vt 0.884642 0.995148
vt 0.876169 0.500199
vt 0.884642 0.500199
vt 0.896706 0.995148
vt 0.888233 0.500199
vt 0.896706 0.500199
vt 0.944761 0.994926
vt 0.936387 0.500199
vt 0.944761 0.500199
vt 0.663122 0.995148
vt 0.445073 0.500199
vt 0.663122 0.500199
vt 0.976305 0.998205
vt 0.975125 0.500199
vt 0.976305 0.500199
vt 0.714478 0.998205
vt 0.734769 0.500199
vt 0.734769 0.998205
vt 0.978937 0.998205
vt 0.978937 0.500199
vt 0.765112 0.500199
vt 0.774900 0.994926
vt 0.765112 0.994926
vt 0.807958 0.995148
vt 0.803098 0.500199
vt 0.807958 0.500199
vt 0.839846 0.500258
vt 0.844590 0.994926
vt 0.839846 0.994985
vt 0.848450 0.994926
vt 0.844590 0.500199
vt 0.848450 0.500199
vt 0.811810 0.995148
vt 0.908770 0.995148
vt 0.900297 0.500199
vt 0.908770 0.500199
vt 0.920834 0.995148
vt 0.912361 0.500199
vt 0.920834 0.500199
vt 0.948352 0.500199
vt 0.956727 0.994926
vt 0.948352 0.994926
vt 0.001795 0.001795
vt 0.496608 0.496608
vt 0.001795 0.496608
vt 0.994790 0.001795
vt 0.500199 0.496608
vt 0.500199 0.001795
vt 0.001795 0.995148
vt 0.960318 0.998205
vt 0.666712 0.500199
vt 0.738360 0.995148
vt 0.778490 0.995148
vt 0.787203 0.500199
vt 0.864105 0.995148
vt 0.852041 0.995148
vt 0.924425 0.995148
vt 0.223434 0.995148
vt 0.971534 0.500199
vt 0.690595 0.500199
vt 0.751734 0.994926
vt 0.790794 0.995148
vt 0.799507 0.500199
vt 0.876169 0.995148
vt 0.888233 0.995148
vt 0.936387 0.994926
vt 0.445073 0.995148
vt 0.975125 0.998205
vt 0.714478 0.500199
vt 0.774900 0.500199
vt 0.803098 0.995148
vt 0.811811 0.500199
vt 0.900297 0.995148
vt 0.912361 0.995148
vt 0.956727 0.500199
vt 0.496608 0.001795
vt 0.994790 0.496608
s 1
usemtl Baked
f 2/1/1 3/2/1 1/3/1
f 10/4/2 12/5/3 11/6/4
f 12/7/3 5/8/1 7/9/1
f 6/10/5 11/6/4 8/11/5
f 14/12/6 15/13/6 13/14/6
f 23/15/7 21/16/8 19/17/7
f 24/18/8 20/19/9 21/20/8
f 16/21/6 22/22/9 17/23/6
f 19/17/7 18/24/1 23/15/7
f 17/25/1 25/26/1 16/27/1
f 29/28/1 27/29/1 30/30/1
f 26/31/6 30/32/6 25/33/6
f 32/34/10 33/35/10 31/36/10
f 40/37/11 42/38/12 41/39/13
f 42/40/12 35/41/10 37/42/10
f 36/43/5 41/39/13 38/44/5
f 44/45/6 45/46/6 43/47/6
f 53/48/14 51/49/15 49/50/14
f 54/51/15 50/52/16 51/53/15
f 46/54/6 52/55/16 47/56/6
f 49/50/14 48/57/10 53/48/14
f 47/58/10 55/59/10 46/60/10
f 59/61/10 57/62/10 60/63/10
f 56/64/6 60/65/6 55/66/6
f 62/67/17 63/68/17 61/69/17
f 70/70/18 72/71/19 71/72/20
f 72/73/19 65/74/17 67/75/17
f 66/76/5 71/72/20 68/77/5
f 74/78/6 75/79/6 73/80/6
f 83/81/21 81/82/22 79/83/21
f 84/84/22 80/85/23 81/86/22
f 76/87/6 82/88/23 77/89/6
f 79/83/21 78/90/17 83/81/21
f 77/91/17 85/92/17 76/93/17
f 89/94/17 87/95/17 90/96/17
f 86/97/6 90/98/6 85/99/6
f 92/100/5 93/101/5 91/102/5
f 97/103/6 96/104/6 95/105/6
f 2/1/1 4/106/1 3/2/1
f 10/4/2 9/107/24 12/5/3
f 12/7/3 9/108/24 5/8/1
f 6/10/5 10/4/2 11/6/4
f 14/12/6 18/109/6 15/13/6
f 23/15/7 24/110/8 21/16/8
f 24/18/8 22/22/9 20/19/9
f 16/21/6 20/19/9 22/22/9
f 19/17/7 15/111/1 18/24/1
f 17/25/1 26/112/1 25/26/1
f 29/28/1 28/113/1 27/29/1
f 26/31/6 29/114/6 30/32/6
f 32/34/10 34/115/10 33/35/10
f 40/37/11 39/116/25 42/38/12
f 42/40/12 39/117/25 35/41/10
f 36/43/5 40/37/11 41/39/13
f 44/45/6 48/118/6 45/46/6
f 53/48/14 54/119/15 51/49/15
f 54/51/15 52/55/16 50/52/16
f 46/54/6 50/52/16 52/55/16
f 49/50/14 45/120/10 48/57/10
f 47/58/10 56/121/10 55/59/10
f 59/61/10 58/122/10 57/62/10
f 56/64/6 59/123/6 60/65/6
f 62/67/17 64/124/17 63/68/17
f 70/70/18 69/125/26 72/71/19
f 72/73/19 69/126/26 65/74/17
f 66/76/5 70/70/18 71/72/20
f 74/78/6 78/127/6 75/79/6
f 83/81/21 84/128/22 81/82/22
f 84/84/22 82/88/23 80/85/23
f 76/87/6 80/85/23 82/88/23
f 79/83/21 75/129/17 78/90/17
f 77/91/17 86/130/17 85/92/17
f 89/94/17 88/131/17 87/95/17
f 86/97/6 89/132/6 90/98/6
f 92/100/5 94/133/5 93/101/5
f 97/103/6 98/134/6 96/104/6
