# Blender 5.2.0 LTS
# www.blender.org
mtllib Grass.mtl
o PanicumTurgidum_1
v -0.794502 0.614585 -0.823752
v 0.936631 0.702703 -0.748899
v -1.058924 0.435724 -0.260636
v 0.939612 0.514401 -0.229401
v 0.019699 0.598071 -1.258826
v 0.125687 -0.020215 -0.028067
v -0.362577 0.632069 -1.244107
v -0.044517 -0.007503 -0.051423
v 0.478757 0.640999 -1.007303
v 0.600632 0.176996 -0.184210
v 0.331715 0.244155 -0.620296
v 0.075032 0.224488 -0.704546
v -0.655981 0.196234 -0.202283
v -0.204330 0.241822 -0.700433
v -0.284801 0.553223 1.144093
v -1.081530 0.548919 -0.397138
v 0.355506 0.473066 1.093194
v -0.608098 0.437393 -0.659377
v -1.054224 0.426352 0.649747
v 0.045506 -0.013786 -0.060993
v -0.859705 0.484602 0.975748
v 0.106817 0.005455 0.098843
v -1.069673 0.477832 0.127299
v -0.351386 0.130574 -0.393383
v -0.604382 0.150103 0.056739
v -0.548015 0.133706 0.321171
v 0.245253 0.221104 0.709160
v -0.410407 0.167899 0.562533
v 1.186099 0.553223 -0.169042
v 0.094566 0.548919 1.179560
v 0.882344 0.473066 -0.735007
v -0.335723 0.437393 0.851294
v 1.042359 0.426352 0.734135
v -0.050191 -0.013786 0.012406
v 1.262800 0.484602 0.425073
v 0.071568 0.005455 -0.107932
v 0.570094 0.477832 0.958093
v -0.195213 0.130574 0.509371
v 0.318618 0.150103 0.560306
v 0.538154 0.133706 0.402491
v 0.574914 0.221103 -0.479812
v 0.703937 0.167899 0.179539
v -0.369169 0.889837 -0.538138
v 1.121138 0.834723 -0.111091
v -0.716610 0.610288 -0.169215
v 1.015272 0.541045 0.271852
v 0.429158 0.934412 -0.743528
v 0.263786 0.085169 0.137927
v 0.093762 0.984286 -0.797782
v 0.120652 0.112936 0.088266
v 0.776344 0.877386 -0.432524
v 0.709922 0.262996 0.153735
v 0.566779 0.448970 -0.244221
v 0.360963 0.470171 -0.370096
v -0.379115 0.364845 -0.104209
v 0.117213 0.501895 -0.417244
v -0.392690 0.747383 0.881088
v -0.705363 0.735912 -0.638295
v 0.140545 0.556217 0.999758
v -0.269599 0.526877 -0.740837
v -0.949774 0.727971 0.272173
v 0.049446 0.074848 -0.044870
v -0.850237 0.775546 0.597365
v 0.067769 0.096260 0.106557
v -0.831286 0.723839 -0.182203
v -0.177630 0.239664 -0.434976
v -0.490419 0.347203 -0.112418
v -0.507678 0.348870 0.129147
v 0.086105 0.319084 0.654541
v -0.441168 0.377488 0.368732
v 0.969789 0.825800 0.102138
v -0.261244 0.703829 1.038140
v 0.859894 0.640346 -0.434980
v -0.526833 0.484815 0.683745
v 0.663693 0.765074 0.866413
v -0.006855 0.083478 0.084544
v 0.909953 0.835953 0.637823
v 0.119957 0.115933 0.003367
v 0.204165 0.726461 0.955051
v -0.271325 0.220453 0.461643
v 0.146216 0.353731 0.607733
v 0.370832 0.373421 0.519335
v 0.589406 0.378644 -0.243360
v 0.555655 0.419272 0.356912
v -0.611611 0.875206 -0.428572
v 0.907421 0.562558 -0.463431
v -0.882613 0.612554 0.010219
v 0.866209 0.249738 -0.083240
v 0.092068 0.824901 -0.857294
v 0.042147 -0.076974 -0.014883
v -0.231707 0.927880 -0.807439
v -0.102417 -0.023945 -0.018534
v 0.498200 0.687019 -0.666088
v 0.497849 0.032121 -0.121392
v 0.281551 0.276363 -0.448510
v 0.055177 0.339733 -0.506759
v -0.586595 0.315680 -0.040868
v -0.183064 0.410909 -0.478142
v 0.318356 0.728614 0.881088
v 0.139742 0.985505 -0.638295
v 0.445655 0.176637 0.999758
v 0.199334 0.505886 -0.740837
v 0.000985 1.186867 0.272173
v -0.008606 -0.006833 -0.044870
v 0.094803 1.128823 0.597365
v 0.019312 -0.010680 0.106557
v 0.061537 1.084935 -0.182204
v 0.007366 0.273297 -0.434976
v -0.071174 0.594595 -0.112418
v -0.079098 0.610019 0.129147
v 0.216709 0.094301 0.654541
v -0.019078 0.569520 0.368732
v -0.838424 0.728614 0.297420
v 0.690240 0.985505 0.237302
v -0.966618 0.176637 0.415122
v 0.787846 0.505886 0.304676
v -0.206707 1.186867 0.028279
v 0.110123 -0.006833 0.043332
v -0.538202 1.128822 0.096569
v -0.043015 -0.010680 0.059409
v 0.241596 1.084935 0.123925
v 0.497811 0.273297 0.089541
v 0.182324 0.594595 -0.013804
v -0.057896 0.610019 -0.040458
v -0.604669 0.094301 0.213667
v -0.301418 0.569520 0.000781
v -0.749191 0.728614 -0.261784
v 0.418498 0.985505 0.726614
v -0.923224 0.176637 -0.261607
v 0.444947 0.505886 0.842229
v -0.101606 1.186867 -0.033449
v 0.121823 -0.006833 0.191691
v -0.392149 1.128822 -0.207048
v -0.001946 -0.010680 0.100089
v 0.164311 1.084935 0.339931
v 0.376445 0.273297 0.487672
v 0.213655 0.594595 0.198342
v 0.054549 0.610019 0.016404
v -0.520264 0.094301 -0.165616
v -0.152858 0.569520 -0.117707
v -0.459708 0.728614 0.812378
v 0.512356 0.985505 -0.368944
v -0.457110 0.176637 0.986391
v 0.627592 0.505886 -0.396998
v -0.240401 1.186867 0.161680
v -0.018390 -0.006833 -0.064858
v -0.409943 1.128822 0.454609
v -0.108262 -0.010680 0.060173
v 0.129245 1.084935 -0.109404
v 0.274021 0.273297 -0.323572
v -0.013016 0.594595 -0.156774
v -0.192724 0.610019 0.004847
v -0.366733 0.094301 0.582135
v -0.323938 0.569520 0.214099
v 0.092024 0.859733 0.842040
v -0.323584 1.062753 -0.709617
v 0.471310 0.396402 0.921937
v -0.059681 0.642769 -0.850663
v -0.465490 1.162437 0.258961
v 0.038061 0.046916 -0.145981
v -0.323089 1.141461 0.587209
v 0.079113 0.051712 0.009381
v -0.402163 1.107372 -0.223935
v -0.107643 0.328223 -0.534817
v -0.298530 0.584712 -0.173838
v -0.291928 0.588673 0.078826
v 0.264129 0.224593 0.572828
v -0.196563 0.571194 0.321405
v -0.428001 0.859733 -0.593521
v 0.796620 1.062753 0.446032
v -0.785368 0.396401 -0.443425
v 0.659848 0.642769 0.712175
v 0.362230 1.162437 -0.431227
v 0.178528 0.046916 0.188285
v 0.058363 1.141461 -0.620144
v 0.056373 0.051712 0.083879
v 0.584904 1.107372 0.001918
v 0.519583 0.328224 0.425147
v 0.471177 0.584712 0.019684
v 0.321990 0.588672 -0.184341
v -0.416360 0.224593 -0.274211
v 0.105546 0.571194 -0.329568
v -0.665360 0.667975 -0.735977
v 0.943063 0.733607 -0.562042
v -0.938551 0.400142 -0.268485
v 0.921338 0.465059 -0.122343
v 0.115509 0.733030 -1.094368
v 0.157876 -0.060731 -0.079441
v -0.241767 0.761636 -1.094342
v 0.000340 -0.044667 -0.107193
v 0.530103 0.725370 -0.833055
v 0.606438 0.148295 -0.161028
v 0.377306 0.290745 -0.560699
v 0.142588 0.288539 -0.654513
v -0.563740 0.170029 -0.238764
v -0.118096 0.303805 -0.661952
vn -0.0940 0.9371 0.3362
vn -0.4167 0.8250 0.3818
vn -0.3588 0.8238 0.4389
vn 0.1128 0.9378 0.3282
vn -0.1087 0.8722 0.4769
vn 0.2107 0.8721 0.4417
vn 0.4088 0.7956 0.4471
vn 0.3496 0.8487 0.3970
vn 0.2372 0.8241 0.5144
vn -0.0902 0.8105 0.5787
vn -0.4283 0.7470 0.5085
vn -0.5190 0.7388 0.4299
vn 0.1901 0.9796 -0.0654
vn 0.4046 0.8944 0.1907
vn 0.4254 0.8980 0.1122
vn 0.0820 0.9670 -0.2413
vn 0.3281 0.9366 -0.1232
vn 0.1415 0.9126 -0.3837
vn 0.0610 0.8261 -0.5602
vn 0.0388 0.8748 -0.4830
vn 0.1984 0.8740 -0.4435
vn 0.4159 0.8892 -0.1907
vn 0.5310 0.8363 0.1368
vn 0.5092 0.8223 0.2543
vn -0.1362 0.9796 -0.1479
vn 0.0122 0.8944 -0.4471
vn -0.0681 0.8980 -0.4346
vn -0.2539 0.9670 0.0218
vn -0.2446 0.9366 -0.2510
vn -0.4082 0.9126 0.0245
vn -0.5375 0.8261 0.1691
vn -0.4579 0.8748 0.1584
vn -0.4858 0.8740 -0.0036
vn -0.3416 0.8892 -0.3043
vn -0.0879 0.8363 -0.5412
vn 0.0284 0.8223 -0.5684
vn -0.1658 0.8064 0.5677
vn -0.4907 0.7094 0.5059
vn -0.4477 0.6878 0.5714
vn 0.0371 0.7945 0.6061
vn -0.2130 0.7052 0.6762
vn 0.1058 0.6922 0.7139
vn 0.2970 0.6034 0.7401
vn 0.2512 0.6726 0.6961
vn 0.1145 0.6237 0.7732
vn -0.2189 0.6159 0.7568
vn -0.5317 0.5995 0.5982
vn -0.6017 0.6207 0.5027
vn 0.4167 0.9071 -0.0603
vn 0.5324 0.8090 0.2492
vn 0.5731 0.7996 0.1795
vn 0.3578 0.8973 -0.2584
vn 0.5515 0.8307 -0.0753
vn 0.4384 0.8165 -0.3757
vn 0.3890 0.7292 -0.5630
vn 0.3591 0.7897 -0.4975
vn 0.4986 0.7608 -0.4153
vn 0.6407 0.7594 -0.1133
vn 0.6520 0.7207 0.2356
vn 0.5979 0.7245 0.3429
vn -0.2972 0.8973 -0.3265
vn -0.0619 0.8216 -0.5667
vn -0.1416 0.8068 -0.5737
vn -0.4494 0.8733 -0.1884
vn -0.3636 0.8191 -0.4437
vn -0.5840 0.7834 -0.2126
vn -0.7251 0.6828 -0.0897
vn -0.6575 0.7481 -0.0893
vn -0.6418 0.7246 -0.2513
vn -0.4313 0.7445 -0.5096
vn -0.1196 0.7318 -0.6710
vn -0.0000 0.7439 -0.6683
vn 0.1386 0.7598 0.6353
vn -0.2020 0.7175 0.6667
vn -0.1465 0.6833 0.7153
vn 0.3392 0.7149 0.6114
vn 0.1077 0.6559 0.7471
vn 0.4173 0.5934 0.6883
vn 0.5904 0.4757 0.6521
vn 0.5463 0.5549 0.6274
vn 0.4308 0.5186 0.7386
vn 0.1099 0.5607 0.8207
vn -0.2331 0.6058 0.7607
vn -0.3226 0.6465 0.6914
vn 0.9884 0.1396 -0.0603
vn 0.9684 -0.0108 0.2492
vn 0.9825 -0.0502 0.1795
vn 0.9484 0.1838 -0.2584
vn 0.9970 -0.0152 -0.0753
vn 0.9239 0.0724 -0.3757
vn 0.8238 0.0668 -0.5630
vn 0.8585 0.1246 -0.4975
vn 0.9096 -0.0084 -0.4153
vn 0.9852 -0.1288 -0.1133
vn 0.9587 -0.1591 0.2356
vn 0.9327 -0.1115 0.3429
vn -0.0166 0.1396 0.9901
vn -0.3237 -0.0108 0.9461
vn -0.2552 -0.0502 0.9656
vn 0.1840 0.1838 0.9656
vn -0.0023 -0.0151 0.9999
vn 0.3028 0.0724 0.9503
vn 0.4973 0.0668 0.8650
vn 0.4293 0.1246 0.8945
vn 0.3435 -0.0084 0.9391
vn 0.0364 -0.1288 0.9910
vn -0.3093 -0.1591 0.9376
vn -0.4143 -0.1115 0.9033
vn -0.6811 0.1396 0.7187
vn -0.8778 -0.0108 0.4789
vn -0.8405 -0.0502 0.5395
vn -0.5167 0.1838 0.8362
vn -0.6772 -0.0151 0.7356
vn -0.4187 0.0724 0.9052
vn -0.2177 0.0668 0.9737
vn -0.2878 0.1246 0.9496
vn -0.3812 -0.0084 0.9245
vn -0.6426 -0.1288 0.7553
vn -0.8614 -0.1591 0.4823
vn -0.9157 -0.1115 0.3861
vn 0.7281 0.1396 0.6711
vn 0.4911 -0.0108 0.8711
vn 0.5512 -0.0502 0.8329
vn 0.8433 0.1838 0.5050
vn 0.7450 -0.0151 0.6669
vn 0.9110 0.0724 0.4061
vn 0.9767 0.0668 0.2042
vn 0.9535 0.1246 0.2745
vn 0.9297 -0.0084 0.3683
vn 0.7641 -0.1288 0.6321
vn 0.4943 -0.1591 0.8546
vn 0.3988 -0.1115 0.9102
vn 0.8213 0.5590 -0.1138
vn 0.8944 0.4065 0.1866
vn 0.9183 0.3792 0.1138
vn 0.7498 0.5867 -0.3060
vn 0.8949 0.4240 -0.1388
vn 0.7664 0.4790 -0.4281
vn 0.6633 0.4354 -0.6086
vn 0.6749 0.5007 -0.5421
vn 0.7852 0.4012 -0.4716
vn 0.9304 0.3177 -0.1828
vn 0.9489 0.2694 0.1645
vn 0.9139 0.2978 0.2760
vn -0.6107 0.5590 0.5609
vn -0.8417 0.4065 0.3554
vn -0.8199 0.3792 0.4289
vn -0.4425 0.5867 0.6782
vn -0.6570 0.4240 0.6233
vn -0.3867 0.4790 0.7881
vn -0.1992 0.4354 0.8779
vn -0.2466 0.5007 0.8298
vn -0.3774 0.4012 0.8346
vn -0.6611 0.3177 0.6797
vn -0.8739 0.2694 0.4046
vn -0.9085 0.2978 0.2930
vn -0.1217 0.8517 0.5097
vn -0.4453 0.7329 0.5143
vn -0.3906 0.7204 0.5731
vn 0.0851 0.8539 0.5135
vn -0.1434 0.7601 0.6338
vn 0.1774 0.7668 0.6169
vn 0.3757 0.6907 0.6179
vn 0.3188 0.7526 0.5761
vn 0.2004 0.7053 0.6800
vn -0.1298 0.6795 0.7221
vn -0.4629 0.6314 0.6221
vn -0.5491 0.6390 0.5386
vt 0.579927 0.315566
vt 0.821464 0.421450
vt 0.685882 0.638495
vt 0.495164 0.329193
vt 0.556567 0.675388
vt 0.417661 0.677217
vt 0.000000 0.506437
vt 0.194682 0.436750
vt 0.345780 1.000000
vt 0.132866 0.800835
vt 0.535494 1.000000
vt 0.767747 0.888002
vt 1.000000 0.499715
vt 1.000000 0.776003
s 1
usemtl Material.001
f 6/1/1 10/2/2 11/3/3
f 8/4/4 6/1/1 12/5/5 14/6/6
f 3/7/7 13/8/8 14/6/6 7/9/9 1/10/7
f 5/11/10 12/5/5 11/3/3 9/12/11
f 14/6/6 12/5/5 5/11/10 7/9/9
f 14/6/6 13/8/8 8/4/4
f 11/3/3 10/2/2 4/13/12 2/14/12 9/12/11
f 11/3/3 12/5/5 6/1/1
f 20/1/13 24/2/14 25/3/15
f 22/4/16 20/1/13 26/5/17 28/6/18
f 17/7/19 27/8/20 28/6/18 21/9/21 15/10/19
f 19/11/22 26/5/17 25/3/15 23/12/23
f 28/6/18 26/5/17 19/11/22 21/9/21
f 28/6/18 27/8/20 22/4/16
f 25/3/15 24/2/14 18/13/24 16/14/24 23/12/23
f 25/3/15 26/5/17 20/1/13
f 34/1/25 38/2/26 39/3/27
f 36/4/28 34/1/25 40/5/29 42/6/30
f 31/7/31 41/8/32 42/6/30 35/9/33 29/10/31
f 33/11/34 40/5/29 39/3/27 37/12/35
f 42/6/30 40/5/29 33/11/34 35/9/33
f 42/6/30 41/8/32 36/4/28
f 39/3/27 38/2/26 32/13/36 30/14/36 37/12/35
f 39/3/27 40/5/29 34/1/25
f 48/1/37 52/2/38 53/3/39
f 50/4/40 48/1/37 54/5/41 56/6/42
f 45/7/43 55/8/44 56/6/42 49/9/45 43/10/43
f 47/11/46 54/5/41 53/3/39 51/12/47
f 56/6/42 54/5/41 47/11/46 49/9/45
f 56/6/42 55/8/44 50/4/40
f 53/3/39 52/2/38 46/13/48 44/14/48 51/12/47
f 53/3/39 54/5/41 48/1/37
f 62/1/49 66/2/50 67/3/51
f 64/4/52 62/1/49 68/5/53 70/6/54
f 59/7/55 69/8/56 70/6/54 63/9/57 57/10/55
f 61/11/58 68/5/53 67/3/51 65/12/59
f 70/6/54 68/5/53 61/11/58 63/9/57
f 70/6/54 69/8/56 64/4/52
f 67/3/51 66/2/50 60/13/60 58/14/60 65/12/59
f 67/3/51 68/5/53 62/1/49
f 76/1/61 80/2/62 81/3/63
f 78/4/64 76/1/61 82/5/65 84/6/66
f 73/7/67 83/8/68 84/6/66 77/9/69 71/10/67
f 75/11/70 82/5/65 81/3/63 79/12/71
f 84/6/66 82/5/65 75/11/70 77/9/69
f 84/6/66 83/8/68 78/4/64
f 81/3/63 80/2/62 74/13/72 72/14/72 79/12/71
f 81/3/63 82/5/65 76/1/61
f 90/1/73 94/2/74 95/3/75
f 92/4/76 90/1/73 96/5/77 98/6/78
f 87/7/79 97/8/80 98/6/78 91/9/81 85/10/79
f 89/11/82 96/5/77 95/3/75 93/12/83
f 98/6/78 96/5/77 89/11/82 91/9/81
f 98/6/78 97/8/80 92/4/76
f 95/3/75 94/2/74 88/13/84 86/14/84 93/12/83
f 95/3/75 96/5/77 90/1/73
f 104/1/85 108/2/86 109/3/87
f 106/4/88 104/1/85 110/5/89 112/6/90
f 101/7/91 111/8/92 112/6/90 105/9/93 99/10/91
f 103/11/94 110/5/89 109/3/87 107/12/95
f 112/6/90 110/5/89 103/11/94 105/9/93
f 112/6/90 111/8/92 106/4/88
f 109/3/87 108/2/86 102/13/96 100/14/96 107/12/95
f 109/3/87 110/5/89 104/1/85
f 118/1/97 122/2/98 123/3/99
f 120/4/100 118/1/97 124/5/101 126/6/102
f 115/7/103 125/8/104 126/6/102 119/9/105 113/10/103
f 117/11/106 124/5/101 123/3/99 121/12/107
f 126/6/102 124/5/101 117/11/106 119/9/105
f 126/6/102 125/8/104 120/4/100
f 123/3/99 122/2/98 116/13/108 114/14/108 121/12/107
f 123/3/99 124/5/101 118/1/97
f 132/1/109 136/2/110 137/3/111
f 134/4/112 132/1/109 138/5/113 140/6/114
f 129/7/115 139/8/116 140/6/114 133/9/117 127/10/115
f 131/11/118 138/5/113 137/3/111 135/12/119
f 140/6/114 138/5/113 131/11/118 133/9/117
f 140/6/114 139/8/116 134/4/112
f 137/3/111 136/2/110 130/13/120 128/14/120 135/12/119
f 137/3/111 138/5/113 132/1/109
f 146/1/121 150/2/122 151/3/123
f 148/4/124 146/1/121 152/5/125 154/6/126
f 143/7/127 153/8/128 154/6/126 147/9/129 141/10/127
f 145/11/130 152/5/125 151/3/123 149/12/131
f 154/6/126 152/5/125 145/11/130 147/9/129
f 154/6/126 153/8/128 148/4/124
f 151/3/123 150/2/122 144/13/132 142/14/132 149/12/131
f 151/3/123 152/5/125 146/1/121
f 160/1/133 164/2/134 165/3/135
f 162/4/136 160/1/133 166/5/137 168/6/138
f 157/7/139 167/8/140 168/6/138 161/9/141 155/10/139
f 159/11/142 166/5/137 165/3/135 163/12/143
f 168/6/138 166/5/137 159/11/142 161/9/141
f 168/6/138 167/8/140 162/4/136
f 165/3/135 164/2/134 158/13/144 156/14/144 163/12/143
f 165/3/135 166/5/137 160/1/133
f 174/1/145 178/2/146 179/3/147
f 176/4/148 174/1/145 180/5/149 182/6/150
f 171/7/151 181/8/152 182/6/150 175/9/153 169/10/151
f 173/11/154 180/5/149 179/3/147 177/12/155
f 182/6/150 180/5/149 173/11/154 175/9/153
f 182/6/150 181/8/152 176/4/148
f 179/3/147 178/2/146 172/13/156 170/14/156 177/12/155
f 179/3/147 180/5/149 174/1/145
f 188/1/157 192/2/158 193/3/159
f 190/4/160 188/1/157 194/5/161 196/6/162
f 185/7/163 195/8/164 196/6/162 189/9/165 183/10/163
f 187/11/166 194/5/161 193/3/159 191/12/167
f 196/6/162 194/5/161 187/11/166 189/9/165
f 196/6/162 195/8/164 190/4/160
f 193/3/159 192/2/158 186/13/168 184/14/168 191/12/167
f 193/3/159 194/5/161 188/1/157
